<svg xmlns="http://www.w3.org/2000/svg" xmlns:xlink="http://www.w3.org/1999/xlink" width="3121.547" height="2886.657" viewBox="0 0 3121.547 2886.657">
  <defs>
    <linearGradient id="linear-gradient" x1="0.295" y1="-0.011" x2="0.605" y2="0.798" gradientUnits="objectBoundingBox">
      <stop offset="0" stop-color="#00ece2"/>
      <stop offset="1" stop-color="#0089fe"/>
    </linearGradient>
    <linearGradient id="linear-gradient-2" x1="-0.345" y1="-0.872" x2="1.092" y2="1.546" xlink:href="#linear-gradient"/>
    <linearGradient id="linear-gradient-3" x1="0.293" y1="-0.07" x2="0.606" y2="0.791" xlink:href="#linear-gradient"/>
    <linearGradient id="linear-gradient-4" x1="-0.006" y1="-0.222" x2="0.9" y2="1.069" xlink:href="#linear-gradient"/>
    <linearGradient id="linear-gradient-5" x1="0.191" y1="-0.332" x2="0.763" y2="1.288" xlink:href="#linear-gradient"/>
    <linearGradient id="linear-gradient-6" x1="0" y1="0.5" x2="1" y2="0.5" xlink:href="#linear-gradient"/>
    <linearGradient id="linear-gradient-10" y1="0.5" x2="1" y2="0.5" gradientUnits="objectBoundingBox">
      <stop offset="0" stop-color="#ff9340"/>
      <stop offset="1" stop-color="#ffce45"/>
    </linearGradient>
    <linearGradient id="linear-gradient-11" y1="0.5" x2="1" y2="0.5" gradientUnits="objectBoundingBox">
      <stop offset="0" stop-color="#c97332"/>
      <stop offset="1" stop-color="#ffce45"/>
    </linearGradient>
  </defs>
  <g id="banner-principal" transform="translate(3126.158 4244.721)">
    <path id="Trazado_37613" data-name="Trazado 37613" d="M-634-1708.428c196.55,0,1077.366,76.85,338.426,271.93s-1334.779-36.234-1382.543-47.379-81.2-42.988-538.7-17.647-1371.472-183.257-626.621-271.93S-830.552-1708.428-634-1708.428Z" fill="#fbe625" stroke="#707070" stroke-width="1"/>
    <g id="banner-principal-2" data-name="banner-principal" transform="translate(-2968.961 -4244.721)">
      <g id="Grupo_10144" data-name="Grupo 10144" transform="translate(417.98 1021.38)">
        <path id="Trazado_37359" data-name="Trazado 37359" d="M688.622,1922.641l-197.3-140.411,44.03-98.626A549.414,549.414,0,0,1,457.9,1559.821L349.83,1556.4,309.6,1317.635l100.988-38.663a549,549,0,0,1,32.6-142.331l-73.9-78.748,140.377-197.3L608.3,904.62a549.5,549.5,0,0,1,123.812-77.456l3.424-108.031L974.3,678.872l38.632,100.985a549.031,549.031,0,0,1,142.36,32.606l78.75-73.9,197.3,140.377-44.031,98.63a550.394,550.394,0,0,1,77.454,123.812l108.035,3.427,40.225,238.764L1512.078,1382.2a552.782,552.782,0,0,1-9.752,64.078l-1.286,6.048L1234.63,1386.7l1.017-5.55c19.476-106.177-24.737-215.2-112.638-277.746a278.867,278.867,0,0,0-388.874,65.524C645,1294.191,674.4,1468.639,799.657,1557.8a277.562,277.562,0,0,0,85.427,41.105l5.273,1.494-51.08,269.792-6.1-1.441a547.028,547.028,0,0,1-65.808-20.01ZM506.258,1778.159l181.316,129.036,77.056-72.312,3.5,1.337a536.283,536.283,0,0,0,61.711,19.4l46.712-246.729a289.8,289.8,0,0,1-83.847-41.325c-130.645-92.995-161.3-274.938-68.339-405.582a290.846,290.846,0,0,1,405.581-68.337c90.145,64.139,136.238,175.14,118.442,284.107l243.464,59.981a539.454,539.454,0,0,0,8.612-60.294l.322-3.745,98.795-37.8-18.469-109.708v0l-18.5-109.709-105.72-3.352-1.527-3.43A538.6,538.6,0,0,0,1375.738,982.4l-2.416-2.871,43.083-96.511-181.315-129-77.06,72.315-3.507-1.344a536.972,536.972,0,0,0-146.359-33.522l-3.74-.321-37.8-98.823-219.414,37L743.85,835.036l-3.427,1.529A537.572,537.572,0,0,0,613.132,916.2l-2.874,2.416L513.748,875.53l-129,181.315,72.309,77.059-1.339,3.507a537.141,537.141,0,0,0-33.522,146.327l-.32,3.743-98.826,37.833,36.969,219.415,105.753,3.354,1.527,3.43a537.454,537.454,0,0,0,79.633,127.26l2.415,2.872Z" transform="translate(-309.602 -678.872)" fill="url(#linear-gradient)"/>
      </g>
      <path id="Trazado_37360" data-name="Trazado 37360" d="M894.233,725.141l-5.859-106.8-229.941-33.22L622.549,685.85a551.586,551.586,0,0,0-65.614,11.224l54.191,256.833a285.518,285.518,0,0,1,237.579,44.361L973.7,766.328A543.073,543.073,0,0,0,894.233,725.141Z" transform="translate(233.164 295.205)" fill="url(#linear-gradient-2)"/>
      <g id="Grupo_10145" data-name="Grupo 10145" transform="translate(1069.695 1781.598)">
        <path id="Trazado_37361" data-name="Trazado 37361" d="M742.772,1372.113v-11.981c115.2,0,217.344-69.074,260.238-175.972l11.119,4.461C969.4,1300.088,862.889,1372.113,742.772,1372.113Z" transform="translate(-742.772 -1184.16)" fill="#0089fe"/>
      </g>
      <g id="Grupo_10146" data-name="Grupo 10146" transform="translate(1069.695 1958.874)">
        <path id="Trazado_37362" data-name="Trazado 37362" d="M742.772,1394.421v-11.98c84.983,0,165.039-27.82,231.518-80.451l7.437,9.391C913.11,1365.707,830.48,1394.421,742.772,1394.421Z" transform="translate(-742.772 -1301.989)" fill="#57f"/>
      </g>
      <g id="Grupo_10147" data-name="Grupo 10147" transform="translate(1335.536 1857.436)">
        <path id="Trazado_37363" data-name="Trazado 37363" d="M926.172,1447.379l-6.706-9.928a476.14,476.14,0,0,0,169.543-202.884l10.966,4.828A488.116,488.116,0,0,1,926.172,1447.379Z" transform="translate(-919.466 -1234.567)" fill="#0089fe"/>
      </g>
      <g id="Grupo_10148" data-name="Grupo 10148" transform="translate(2003.847 776.388)">
        <rect id="Rectángulo_477" data-name="Rectángulo 477" width="11.98" height="289.497" transform="matrix(0.741, -0.672, 0.672, 0.741, 0, 8.05)" fill="#98a6b1"/>
      </g>
      <path id="Trazado_37364" data-name="Trazado 37364" d="M1584.79,1202.581l-19.321-114.545-106.883-3.385a544.9,544.9,0,0,0-80.5-128.712l43.556-97.552L1232.321,723.673l-77.888,73.1a538.534,538.534,0,0,0-59.758-18.977l-48.13,259.066a284.117,284.117,0,0,1,77.679,39.063c93.139,66.259,134.422,178.242,115.075,283.7l254.916,62.8a547.688,547.688,0,0,0,9.99-67.078l99.852-38.218ZM727.01,1142.85a283.351,283.351,0,0,1,79.765-75.616L676.687,839.251a540.929,540.929,0,0,0-69.669,49.767l-97.553-43.556-67.343,94.645-67.343,94.645,73.1,77.917a542.922,542.922,0,0,0-33.909,147.955l-99.906,38.242,19.321,114.547,19.293,114.548,106.883,3.382A544.038,544.038,0,0,0,540.1,1660.029l-43.556,97.553,94.645,67.4,94.671,67.344,77.888-73.1a538.008,538.008,0,0,0,68.56,21.091l48.9-258.246a283.534,283.534,0,0,1-87.272-41.972C665.771,1448.855,635.8,1271.009,727.01,1142.85Z" transform="translate(110.632 365.111)" fill="url(#linear-gradient-3)"/>
      <path id="Trazado_37365" data-name="Trazado 37365" d="M1244.165,668.912a221.341,221.341,0,0,0,13.809-60.238l40.656-15.56-7.856-46.636-7.858-46.634-43.511-1.38a221.312,221.312,0,0,0-32.782-52.389l17.732-39.719-38.531-27.42-38.532-27.42-31.717,29.767a221.274,221.274,0,0,0-60.238-13.806l-15.558-40.658-46.637,7.857-46.634,7.858-1.38,43.511a221.366,221.366,0,0,0-52.389,32.782L853.02,401.093,825.6,439.625l-27.42,38.531,29.769,31.717a221.344,221.344,0,0,0-13.808,60.238l-40.657,15.56,7.857,46.636,7.858,46.634,43.511,1.38a221.3,221.3,0,0,0,32.782,52.39l-17.732,39.718,38.531,27.422,38.531,27.42L956.536,797.5a221.343,221.343,0,0,0,60.238,13.806l15.561,40.657,46.634-7.855,46.634-7.857,1.38-43.512a221.341,221.341,0,0,0,52.39-32.781l39.718,17.731,27.421-38.531,27.419-38.532ZM968.823,683.868a115.956,115.956,0,1,1,161.708-27.244A115.957,115.957,0,0,1,968.823,683.868Z" transform="translate(342.417 164.888)" fill="url(#linear-gradient-4)"/>
      <g id="Grupo_10149" data-name="Grupo 10149" transform="translate(1979.91)">
        <path id="Trazado_37366" data-name="Trazado 37366" d="M1376.131,787.1a28.406,28.406,0,0,0,28.374-28.374h-6.685a21.689,21.689,0,1,1-21.689-21.689h3.342V0h-6.685V730.544a28.375,28.375,0,0,0,3.343,56.552Z" transform="translate(-1347.757)" fill="#003184"/>
      </g>
      <g id="Grupo_10150" data-name="Grupo 10150" transform="translate(2000.589 566.906)">
        <rect id="Rectángulo_478" data-name="Rectángulo 478" width="15.974" height="162.189" transform="translate(15.974 162.189) rotate(180)" fill="#98a6b1"/>
      </g>
      <g id="Grupo_10151" data-name="Grupo 10151" transform="translate(1809.603 771.779)">
        <path id="Trazado_37367" data-name="Trazado 37367" d="M1243.429,740.024l-8.868-8.056,198.934-219,8.09,8.915Z" transform="translate(-1234.561 -512.972)" fill="#98a6b1"/>
      </g>
      <path id="Trazado_37368" data-name="Trazado 37368" d="M1825.922,886.362a542.9,542.9,0,0,0,63.335-55.735L1706.945,641.694a283.884,283.884,0,0,1-101.194,70.448c-114.523,47.135-242.021,14.206-320.349-72.906L1106.473,831.77a539.576,539.576,0,0,0,60.387,53.116l-20.818,104.893,107.214,44.689,107.235,44.659,59.788-88.645a545.151,545.151,0,0,0,151.822.4l59.377,88.826,107.411-44.242L1846.3,991.226Z" transform="translate(510.419 322.51)" fill="url(#linear-gradient-5)"/>
      <g id="Grupo_10156" data-name="Grupo 10156" transform="translate(1727.385 2369.166)">
        <g id="Grupo_10152" data-name="Grupo 10152">
          <path id="Trazado_37369" data-name="Trazado 37369" d="M1306.655,1585.992H1671.1l-114.864,352.742,10.743,3.5,119.679-367.536H1298.453l-118.54,364.039,10.742,3.5Z" transform="translate(-1179.913 -1574.694)" fill="#212121"/>
        </g>
        <g id="Grupo_10153" data-name="Grupo 10153" transform="translate(120.358)">
          <path id="Trazado_37370" data-name="Trazado 37370" d="M1390.332,1938.734l-114.861-352.742h364.445l116,356.239,10.742-3.5-118.54-364.039H1259.91l119.68,367.536Z" transform="translate(-1259.91 -1574.694)" fill="#212121"/>
        </g>
        <g id="Grupo_10154" data-name="Grupo 10154" transform="translate(92.835 111.075)">
          <rect id="Rectángulo_479" data-name="Rectángulo 479" width="446.069" height="11.297" fill="#212121"/>
        </g>
        <g id="Grupo_10155" data-name="Grupo 10155" transform="translate(46.883 233.724)">
          <rect id="Rectángulo_480" data-name="Rectángulo 480" width="533.688" height="11.297" fill="#212121"/>
        </g>
      </g>
      <g id="Grupo_10161" data-name="Grupo 10161" transform="translate(804.344 466.965)">
        <g id="Grupo_10157" data-name="Grupo 10157">
          <path id="Trazado_37371" data-name="Trazado 37371" d="M616.4,545.752a43.15,43.15,0,0,1-22.359-14.941c-6.152-8.031-8.472-17.48-6.534-26.618,2.5-18.265.793-38.04-1.159-51.756A86.751,86.751,0,1,1,687.469,476.77c-9.945,15.9-17.054,30.864-21.135,44.507-4.13,18.644-25.062,29.981-46.743,25.284Q617.973,546.21,616.4,545.752Zm58.946-225.121A79.641,79.641,0,0,0,592.425,448.64l.658.775.146,1.005c2.079,14.23,3.993,35.3,1.291,54.875l-.047.265c-1.542,7.11.307,14.546,5.2,20.935a36.521,36.521,0,0,0,21.418,13.13c17.908,3.88,35.1-5.085,38.334-19.989l.03-.132.038-.129c4.341-14.564,11.931-30.489,22.562-47.331l.6-.951,1.037-.43a79.63,79.63,0,0,0-8.347-150.03Z" transform="translate(-566.403 -310.374)" fill="#fbe625"/>
        </g>
        <g id="Grupo_10158" data-name="Grupo 10158" transform="translate(40.33 108.282)">
          <path id="Trazado_37372" data-name="Trazado 37372" d="M593.209,477.191l8.279-94.847,15.945,20,14.744-10.765L639.9,406.2l21.228-11.493-30.39,90.364-6.726-2.261,24.645-73.281-11.681,6.325-7.243-13.7-13.613,9.938-9.111-11.429-6.734,77.149Z" transform="translate(-593.209 -382.345)" fill="#fbe625"/>
        </g>
        <g id="Grupo_10159" data-name="Grupo 10159" transform="translate(19.648 221.203)">
          <rect id="Rectángulo_481" data-name="Rectángulo 481" width="61.524" height="24.793" transform="translate(5.25 0) rotate(12.226)" fill="#fbe625"/>
        </g>
        <g id="Grupo_10160" data-name="Grupo 10160" transform="translate(12.141 194.354)">
          <rect id="Rectángulo_482" data-name="Rectángulo 482" width="81.311" height="39.911" transform="translate(8.452 0) rotate(12.226)" fill="#fbe625"/>
        </g>
      </g>
      <g id="Grupo_10181" data-name="Grupo 10181" transform="translate(184.264 1213.763)">
        <g id="Grupo_10164" data-name="Grupo 10164">
          <g id="Grupo_10163" data-name="Grupo 10163">
            <g id="Grupo_10162" data-name="Grupo 10162">
              <path id="Trazado_37373" data-name="Trazado 37373" d="M158.547,1167.155l-4.287-1.474,35.954-104.664,80.332-22.248,27.637-114.742,61.866-28.164,12.9-89.121,4.489.649-13.254,91.573-62.107,28.273-27.746,115.19-80.6,22.321Z" transform="translate(-154.26 -806.742)" fill="#fbe625"/>
            </g>
          </g>
        </g>
        <g id="Grupo_10166" data-name="Grupo 10166" transform="translate(106.086 221.764)">
          <g id="Grupo_10165" data-name="Grupo 10165">
            <path id="Trazado_37374" data-name="Trazado 37374" d="M246.138,958.473a12.093,12.093,0,1,1-17.036-1.514A12.094,12.094,0,0,1,246.138,958.473Z" transform="translate(-224.771 -954.14)" fill="#fff"/>
          </g>
        </g>
        <g id="Grupo_10168" data-name="Grupo 10168" transform="translate(103.823 219.503)">
          <g id="Grupo_10167" data-name="Grupo 10167">
            <path id="Trazado_37375" data-name="Trazado 37375" d="M246.838,978a14.36,14.36,0,1,1,1.8-20.228A14.377,14.377,0,0,1,246.838,978Zm-15.522-18.549a9.825,9.825,0,1,0,13.842,1.231A9.837,9.837,0,0,0,231.316,959.455Z" transform="translate(-223.267 -952.637)" fill="#fbe625"/>
          </g>
        </g>
        <g id="Grupo_10170" data-name="Grupo 10170" transform="translate(134.11 107.485)">
          <g id="Grupo_10169" data-name="Grupo 10169">
            <path id="Trazado_37376" data-name="Trazado 37376" d="M264.765,882.516A12.094,12.094,0,1,1,247.73,881,12.1,12.1,0,0,1,264.765,882.516Z" transform="translate(-243.398 -878.183)" fill="#fff"/>
          </g>
        </g>
        <g id="Grupo_10172" data-name="Grupo 10172" transform="translate(131.848 105.223)">
          <g id="Grupo_10171" data-name="Grupo 10171">
            <path id="Trazado_37377" data-name="Trazado 37377" d="M265.464,902.048a14.36,14.36,0,1,1,1.8-20.228A14.376,14.376,0,0,1,265.464,902.048ZM249.943,883.5a9.825,9.825,0,1,0,13.842,1.229A9.835,9.835,0,0,0,249.943,883.5Z" transform="translate(-241.894 -876.68)" fill="#fbe625"/>
          </g>
        </g>
        <g id="Grupo_10174" data-name="Grupo 10174" transform="translate(195.009 78.552)">
          <g id="Grupo_10173" data-name="Grupo 10173">
            <path id="Trazado_37378" data-name="Trazado 37378" d="M305.242,863.285a12.093,12.093,0,1,1-17.034-1.513A12.091,12.091,0,0,1,305.242,863.285Z" transform="translate(-283.875 -858.953)" fill="#fff"/>
          </g>
        </g>
        <g id="Grupo_10176" data-name="Grupo 10176" transform="translate(192.749 76.29)">
          <g id="Grupo_10175" data-name="Grupo 10175">
            <path id="Trazado_37379" data-name="Trazado 37379" d="M305.942,882.817a14.36,14.36,0,1,1,1.8-20.228A14.377,14.377,0,0,1,305.942,882.817Zm-15.521-18.549a9.826,9.826,0,1,0,13.84,1.232A9.84,9.84,0,0,0,290.421,864.267Z" transform="translate(-282.372 -857.449)" fill="#fbe625"/>
          </g>
        </g>
        <g id="Grupo_10178" data-name="Grupo 10178" transform="translate(26.079 245.067)">
          <g id="Grupo_10177" data-name="Grupo 10177">
            <path id="Trazado_37380" data-name="Trazado 37380" d="M192.961,973.962a12.093,12.093,0,1,1-17.034-1.514A12.1,12.1,0,0,1,192.961,973.962Z" transform="translate(-171.594 -969.629)" fill="#fff"/>
          </g>
        </g>
        <g id="Grupo_10180" data-name="Grupo 10180" transform="translate(23.818 242.807)">
          <g id="Grupo_10179" data-name="Grupo 10179">
            <path id="Trazado_37381" data-name="Trazado 37381" d="M193.661,993.493a14.36,14.36,0,1,1,1.8-20.228A14.377,14.377,0,0,1,193.661,993.493Zm-15.522-18.548a9.826,9.826,0,1,0,13.842,1.229A9.837,9.837,0,0,0,178.139,974.946Z" transform="translate(-170.091 -968.127)" fill="#fbe625"/>
          </g>
        </g>
      </g>
      <g id="Grupo_10218" data-name="Grupo 10218" transform="translate(1895.294 1613.669)">
        <g id="Grupo_10183" data-name="Grupo 10183" transform="translate(140.428 69.983)">
          <g id="Grupo_10182" data-name="Grupo 10182">
            <path id="Trazado_37382" data-name="Trazado 37382" d="M1387.042,1188.367s-7.037-12.316,4.124-45.322c10.795-31.921,48.161-29.027,60.035-8.576s7.864,33.154-9.619,56.244S1394.3,1198.924,1387.042,1188.367Z" transform="translate(-1384.853 -1119.059)" fill="#ffbd95"/>
          </g>
        </g>
        <g id="Grupo_10185" data-name="Grupo 10185" transform="translate(229.405 705.421)">
          <g id="Grupo_10184" data-name="Grupo 10184">
            <path id="Trazado_37383" data-name="Trazado 37383" d="M1443.993,1543.16s1.851,13.556,2.081,15.59,20.568-1.2,20.568-1.2l1.647-16.138S1446.537,1541.247,1443.993,1543.16Z" transform="translate(-1443.993 -1541.411)" fill="#ffa200"/>
          </g>
        </g>
        <g id="Grupo_10187" data-name="Grupo 10187" transform="translate(195.977 720.12)">
          <g id="Grupo_10186" data-name="Grupo 10186">
            <path id="Trazado_37384" data-name="Trazado 37384" d="M1457.067,1552.1s-6.444,8.169-12.674,11.729-16.028,4.971-19.712,8.656c-2.66,2.658-9.689,14.112,16.195,13.881s38.364,1.619,41.135-2.773-4.012-32.41-4.012-32.41S1471.664,1552.966,1457.067,1552.1Z" transform="translate(-1421.775 -1551.18)" fill="#212121"/>
          </g>
        </g>
        <g id="Grupo_10189" data-name="Grupo 10189" transform="translate(88.589 705.421)">
          <g id="Grupo_10188" data-name="Grupo 10188">
            <path id="Trazado_37385" data-name="Trazado 37385" d="M1350.4,1543.16s1.849,13.556,2.081,15.59,20.568-1.2,20.568-1.2l1.647-16.138S1352.941,1541.247,1350.4,1543.16Z" transform="translate(-1350.398 -1541.411)" fill="#ffa200"/>
          </g>
        </g>
        <g id="Grupo_10191" data-name="Grupo 10191" transform="translate(43.205 720.12)">
          <g id="Grupo_10190" data-name="Grupo 10190">
            <path id="Trazado_37386" data-name="Trazado 37386" d="M1367.481,1552.1s-6.444,8.169-12.676,11.729-29.167,6.484-32.851,10.169c-2.661,2.66-7.085,13.368,29.335,12.367,25.875-.71,38.364,1.619,41.137-2.773s-4.012-32.41-4.012-32.41A107.406,107.406,0,0,1,1367.481,1552.1Z" transform="translate(-1320.233 -1551.18)" fill="#212121"/>
          </g>
        </g>
        <g id="Grupo_10193" data-name="Grupo 10193" transform="translate(168.345 369.645)">
          <g id="Grupo_10192" data-name="Grupo 10192">
            <path id="Trazado_37387" data-name="Trazado 37387" d="M1457.622,1318.233s10.428,32.4,9.054,60.328,5.392,58.482,8.158,87.653c3.084,32.521,15.7,109.51,16.158,126.905s-1.96,72.946-1.96,72.946l-25.255.609s-21.211-134.6-26.705-148.33-32.737-111.642-33.652-122.629S1457.622,1318.233,1457.622,1318.233Z" transform="translate(-1403.409 -1318.233)" fill="#fbe625"/>
          </g>
        </g>
        <g id="Grupo_10195" data-name="Grupo 10195" transform="translate(85.724 359.395)">
          <g id="Grupo_10194" data-name="Grupo 10194">
            <path id="Trazado_37388" data-name="Trazado 37388" d="M1380.613,1318.3s-15.333,85.677-17.162,102.77-3.053,82.71-3.969,93.393-6.1,139.783-10.988,155.654h28.162s28.912-93.852,28.912-138.258,19.148-96.535,31.508-125.833,40.655-29.993,48.252-84.351C1485.328,1321.67,1390.9,1301.055,1380.613,1318.3Z" transform="translate(-1348.494 -1311.42)" fill="#fbe625"/>
          </g>
        </g>
        <g id="Grupo_10197" data-name="Grupo 10197" transform="translate(152.667 137.896)">
          <g id="Grupo_10196" data-name="Grupo 10196">
            <path id="Trazado_37389" data-name="Trazado 37389" d="M1393.153,1174.308s3.177,9.245,0,15.843,40.584,2.639,40.584,2.639-1.978-13.634,3.74-24.852S1393.153,1174.308,1393.153,1174.308Z" transform="translate(-1392.988 -1164.198)" fill="#ffbd95"/>
          </g>
        </g>
        <g id="Grupo_10199" data-name="Grupo 10199" transform="translate(116.435 366.271)">
          <g id="Grupo_10198" data-name="Grupo 10198">
            <path id="Trazado_37390" data-name="Trazado 37390" d="M1477.06,1326.424s-15.739,16.167-108.154-2.517l1.408-7.917,105.06,3.956Z" transform="translate(-1368.906 -1315.99)" fill="#fbe625"/>
          </g>
        </g>
        <g id="Grupo_10201" data-name="Grupo 10201" transform="translate(17.371 53.45)">
          <g id="Grupo_10200" data-name="Grupo 10200">
            <path id="Trazado_37391" data-name="Trazado 37391" d="M1431.9,1220.611s-16.165,1.649-20.782,2.529-35.706-5.561-42.082-6.22-33.57-19.291-34.45-21.491-16.545-41.862-17.422-50.439-15.259-4.148-14.027,1.763c2.306,11.055,5.267,37.892,6.891,45.671,1.753,8.4,6.451,27.42,9.09,29.761s27.124,20.966,51.094,28.882a203.844,203.844,0,0,1,42.015,19.574h118.137s45.95-65.683,46.94-75.578-32.1-75.67-38.693-83.918-16.14,2.693-16.14,2.693,19.77,58,22.408,66.25-22.994,44.48-30.032,44.588-25.107-2.2-33.134-2.527-16.494-3.849-16.494-3.849Z" transform="translate(-1303.062 -1108.07)" fill="#ffbd95"/>
          </g>
        </g>
        <g id="Grupo_10203" data-name="Grupo 10203" transform="translate(70.227 145.261)">
          <g id="Grupo_10202" data-name="Grupo 10202">
            <path id="Trazado_37392" data-name="Trazado 37392" d="M1363.264,1233.7s14.461,9.615,15.781,26.11,6.6,42.552,9.236,51.458-2.31,73.558-2.969,78.178,91.414,15.59,105.556,4.617c0,0,3.958-60.365,5.607-77.518s9.566-58.716,12.2-64.323,34.634-50.49,35.954-56.406c0,0-16.553-26.391-28.427-26.719,0,0-18.861,22.1-25.01,23.09s-43.843-5.919-43.848-5.976c0,0-4.113,5.6-25.983-.994,0,0-26.048,2.94-30.283,3.48-5.13.655-40.8-4.477-40.8-4.477s-14.307,24.161-11.8,36.36Z" transform="translate(-1338.193 -1169.093)" fill="#003ea8"/>
          </g>
        </g>
        <g id="Grupo_10205" data-name="Grupo 10205" transform="translate(0 30.076)">
          <g id="Grupo_10204" data-name="Grupo 10204">
            <path id="Trazado_37393" data-name="Trazado 37393" d="M1323.814,1157.985s-3.229-15.288.66-19.678c2.213-2.5,7.535-9.114,8.021-10.085s6.2-4.253,6.2-5.833-5.591-3.524-10.45.972-7.9,5.467-9.843,4.981-4.739-16.646-4.983-20.657-1.789-14.582-4.3-13.854-2.385,5.349-2.385,5.349-2.917-8.021-4.863-6.441-1.7,5.469-1.7,5.469-3.642-4.5-4.616-1.216a11.343,11.343,0,0,0,0,6.2s-3.767-2.066-4.009,3.038,1.094,20.049,3.766,25.4,12.68,19.329,13.875,24.792S1323.814,1157.985,1323.814,1157.985Z" transform="translate(-1291.516 -1092.534)" fill="#ffbd95"/>
          </g>
        </g>
        <g id="Grupo_10207" data-name="Grupo 10207" transform="translate(201.231)">
          <g id="Grupo_10206" data-name="Grupo 10206">
            <path id="Trazado_37394" data-name="Trazado 37394" d="M1464.036,1141.221s-10.992-18.474-14.729-20.125-9.017-2.582-13.634-5.882-10.723-6.047-10.393-7.147,5.773-.659,11.6,1.869,8.386,1.309,8.936-.01-3.108-10.637-4.867-12.837-14.294-14.806-12.206-16.676,10.226,5.058,11.547,6.488c0,0-6.489-13.636-3.96-14.295s7.258,4.178,7.258,4.178-.549-11.656,11.985,7.258c0,0-2.639-6.266,1.211-4.178s7.586,13.854,8.8,19.792,6.7,24.854,11.375,29.415S1464.036,1141.221,1464.036,1141.221Z" transform="translate(-1425.266 -1072.544)" fill="#ffbd95"/>
          </g>
        </g>
        <g id="Grupo_10209" data-name="Grupo 10209" transform="translate(146.44 67.177)">
          <g id="Grupo_10208" data-name="Grupo 10208">
            <path id="Trazado_37395" data-name="Trazado 37395" d="M1439.566,1191.653s-5.791.512-18.107-3.74-13.234-25.786-15.9-23.236c-5.434,5.206-10.565,1.613-12.619-1.467,0,0,6.011-7.916,3.226-11.729a29.545,29.545,0,0,0-7.32-6.593s8.66-41.748,48.079-22.729C1483.11,1144.446,1439.566,1191.653,1439.566,1191.653Z" transform="translate(-1388.849 -1117.194)" fill="#353a3d"/>
          </g>
        </g>
        <g id="Grupo_10211" data-name="Grupo 10211" transform="translate(152.832 157.754)">
          <g id="Grupo_10210" data-name="Grupo 10210">
            <path id="Trazado_37396" data-name="Trazado 37396" d="M1393.1,1183.492l1.387-6.036s25.16-.51,38.886,1.48l1.446,7.213S1417.24,1194.121,1393.1,1183.492Z" transform="translate(-1393.098 -1177.397)" fill="#254380"/>
          </g>
        </g>
        <g id="Grupo_10213" data-name="Grupo 10213" transform="translate(155.512 106.101)">
          <g id="Grupo_10212" data-name="Grupo 10212">
            <path id="Trazado_37397" data-name="Trazado 37397" d="M1398.406,1146.346c2.284-3.8,10.735-6.358,11.728,4.4.769,8.34-15.1,17.448-15.247,9.677S1396.883,1148.874,1398.406,1146.346Z" transform="translate(-1394.879 -1143.065)" fill="#ffbd95"/>
          </g>
        </g>
        <g id="Grupo_10215" data-name="Grupo 10215" transform="translate(18.182 92.597)">
          <g id="Grupo_10214" data-name="Grupo 10214">
            <path id="Trazado_37398" data-name="Trazado 37398" d="M1317.281,1134.1s-9.241-.325-13.643,3.653a9.059,9.059,0,0,0,.734,4.515s7.869-3.669,13.9-4.357C1318.275,1137.907,1318.338,1135.152,1317.281,1134.1Z" transform="translate(-1303.601 -1134.09)" fill="#e55353"/>
          </g>
        </g>
        <g id="Grupo_10217" data-name="Grupo 10217" transform="translate(20.69 91.932)">
          <g id="Grupo_10216" data-name="Grupo 10216">
            <path id="Trazado_37399" data-name="Trazado 37399" d="M1305.577,1136.033a3.9,3.9,0,1,0,5.114-2.076A3.9,3.9,0,0,0,1305.577,1136.033Z" transform="translate(-1305.268 -1133.648)" fill="#353a3d"/>
          </g>
        </g>
      </g>
      <g id="Grupo_10222" data-name="Grupo 10222" transform="translate(221.385)">
        <g id="Grupo_10220" data-name="Grupo 10220" transform="translate(0 836.291)">
          <g id="Grupo_10219" data-name="Grupo 10219">
            <path id="Trazado_37400" data-name="Trazado 37400" d="M269.3,615.215s-11.929-21.9-18.715-29.781-29.332-13.79-26.269-23.862,33.274-5.69,41.591,4.16,33.712,13.353,34.588,17.513-8.818,26.923-14.26,30.647S269.3,615.215,269.3,615.215Z" transform="translate(-156.181 -555.851)" fill="#6a75ba"/>
            <path id="Trazado_37401" data-name="Trazado 37401" d="M241.341,623.069s-19.432-15.408-28.791-19.945-32.4-1.01-33.582-11.467,28.278-18.437,39.823-12.7,36.243-1.133,38.7,2.337,2.6,28.213-.916,33.789S241.341,623.069,241.341,623.069Z" transform="translate(-178.933 -545.161)" fill="#545d94"/>
            <path id="Trazado_37402" data-name="Trazado 37402" d="M249.1,657.642s8.483-58.014,8.1-68.078c-.11-2.872,17.459-1.805,16.637,3.722-1.786,12.033,6.321,58.666,4.912,67.2S248.378,663.019,249.1,657.642Z" transform="translate(-143.538 -539.622)" fill="#ffbd95"/>
            <path id="Trazado_37403" data-name="Trazado 37403" d="M238.043,669.618s-15.9-56.331-19.6-65.7c-1.647-4.169,14.552-10.628,16.747-3.191,3.447,11.669,29.1,51.333,31.195,59.728S239.513,674.841,238.043,669.618Z" transform="translate(-159.06 -534.925)" fill="#ffbd95"/>
            <path id="Trazado_37404" data-name="Trazado 37404" d="M245.374,698.336s-17.075-57.572-19.7-63.7L252.6,618s12.477,36.775,14.228,45.969S245.374,698.336,245.374,698.336Z" transform="translate(-155.352 -524.495)" fill="#0089fe"/>
            <path id="Trazado_37405" data-name="Trazado 37405" d="M591.414,570.3s-26,6.573-38.373,26.236-23.061,42.309-46.306,52.583-23.4,36.745-21.585,40.83,73.219,84.354,88.8,87.457,44.755.945,41.635-19.681-33.694-65-16.533-87.38,21.486-43,21.486-43Z" transform="translate(-24.785 -548.563)" fill="#2e334d"/>
            <path id="Trazado_37406" data-name="Trazado 37406" d="M564.067,648.34a10.146,10.146,0,0,0-2.034-.369,14.778,14.778,0,0,0-6.08.73,13.633,13.633,0,0,0-2.38,1.183c-6.179,3.639-20.8,13.524-22.776,13.759-2.282.272-.355-33.834-.355-33.834s7.784-13.772,8.765-22.839S564.067,648.34,564.067,648.34Z" transform="translate(-1.972 -530.61)" fill="#ffbd95"/>
            <path id="Trazado_37407" data-name="Trazado 37407" d="M530.294,674.419s-28.568-20.03-62.059-13.791-37.1,21.9-48.6,22.6-49.911-2.574-81.432,6.62-58.12,10.178-61.731,7.551,19.7-55.163,19.7-62.387L257.1,624.837s-11.165,46.625-15.542,57.133c-4.682,11.24-13.682,32.4-.876,50.787s48.6,10.1,70.269,13.807,118.671,1.33,135.609.421c18.388-.984,73.881-3.611,73.881-3.611Z" transform="translate(-151.101 -521.045)" fill="#0089fe"/>
            <path id="Trazado_37408" data-name="Trazado 37408" d="M612.609,594.645s1.822,28.222-4.443,36.685a40.4,40.4,0,0,1-5.35,6.221,12.4,12.4,0,0,0-3.569,5.17c-1.936,5.43-3.128,13.07-4.669,14.7-1.682,1.777-6.557-2.747-8.322-2.756s-18.954,14.826-23.064,11.789S534,637.97,536.11,620.522s9.805-43.5,38.04-43.336S610.449,587.628,612.609,594.645Z" transform="translate(1.209 -545.087)" fill="#ffbd95"/>
            <path id="Trazado_37409" data-name="Trazado 37409" d="M583.909,706.94c-.54,1.157-10.924,17.737-22.3,27.357-4.723,4-9.612,6.792-14.04,6.792q-2.031,0-3.954.053c-13.053.351-23.081,2.352-40.7,3.229-18.306.915-62.715-1.64-64.028-1.64s-14.12,2.3-14.12,2.3c-4.6-5.583,7.551-68.626,9.85-68.955s17.075,5.254,31.193,2.956,19.7-3.614,40.717-28.24,42.029-30.865,50.9-28.894,26.487,0,26.487,0S584.675,705.3,583.909,706.94Z" transform="translate(-55.424 -522.7)" fill="#fbe625"/>
            <path id="Trazado_37410" data-name="Trazado 37410" d="M603.847,618.613s5.261,13.634,8.051,15.512c0,0,10.156-10.738,3.633-37.243s-31.126-29-47.007-26.3c-19.774,3.349-39.677,70.243-38.651,76.759s23.18-34.571,42.589-31.264S592.025,620.461,603.847,618.613Z" transform="translate(-1.894 -548.846)" fill="#2e334d"/>
            <path id="Trazado_37411" data-name="Trazado 37411" d="M557,641.41a14.779,14.779,0,0,0-6.08.73,13.634,13.634,0,0,0-2.38,1.182c-4.541-7.08-8.746-23.871-8.886-24.439C542.682,628.076,557,641.41,557,641.41Z" transform="translate(3.06 -524.049)" fill="#a77860"/>
            <path id="Trazado_37412" data-name="Trazado 37412" d="M521.411,711.721c-4.723,4-9.612,6.792-14.04,6.792q-2.031,0-3.954.053l5.374-52.261Z" transform="translate(-15.223 -500.124)" fill="#c29941"/>
            <path id="Trazado_37413" data-name="Trazado 37413" d="M621.534,805.286l-12.6,11.464c-10.873-5.826-38.125-25.437-43.366-29.9-5.5-4.685-42.16-35.349-47.191-42.337-5.081-6.99-11.511-79.221-10.858-82.531.653-3.262,31.873-4.939,35.417,2.7,0,0,1.629,41.2,2.47,48.092a35.724,35.724,0,0,0,8.162,18.928c6.545,8.03,20.486,26.675,33.98,41.746C590.761,777.043,617.373,801.7,621.534,805.286Z" transform="translate(-13.178 -503.692)" fill="#ffbd95"/>
            <path id="Trazado_37414" data-name="Trazado 37414" d="M546.059,681.638s1.971-54.858-15.871-54.179c-22.556.858-25.939,28.457-22.875,58.448C507.313,685.906,541.023,686.234,546.059,681.638Z" transform="translate(-13.743 -519.726)" fill="#fbe625"/>
            <path id="Trazado_37415" data-name="Trazado 37415" d="M584.039,752.781a9.35,9.35,0,0,0,4.11,3.465c4.2,1.417,10.408-1.313,13.473,4.187s-11.725,19.241-15.7,20.076-10.339-5.35-15.316-17.549S584.039,752.781,584.039,752.781Z" transform="translate(18.247 -456.558)" fill="#ffbd95"/>
            <path id="Trazado_37416" data-name="Trazado 37416" d="M597.822,756.685A191.41,191.41,0,0,1,612.995,769.8c6.692,6.468,13.5,14.961,11.782,16.563-2.346,2.191-6.91-5.1-13.972-11.091-6.5-5.516-6.134-3.387-6.134-3.387s-.071-.611,5.86,6.718c6.376,7.878,12.964,17.233,11,18.582-1.232.849-1.289,1.073-4.073-1.429,1.292,1.766.992,2.349.3,2.926-3.558,2.98-14.732-7.217-19.168-11.27,3.388,3.132,5.544,5.777,2.1,6.184-3.934.462-19.086-14.639-25.029-19.55C569.18,768.688,597.822,756.685,597.822,756.685Z" transform="translate(20.746 -454.525)" fill="#ffbd95"/>
          </g>
          <path id="Trazado_37417" data-name="Trazado 37417" d="M440.8,659.492s-6.023,43.169-3.054,64.407c0,0,3.14,2.332,9.388.447,0,0,1.56-47.126,5.058-63.855C452.192,660.491,450.271,659.036,440.8,659.492Z" transform="translate(-48.77 -503.606)" fill="#e0e0e0"/>
        </g>
        <g id="Grupo_10221" data-name="Grupo 10221" transform="translate(393.458)">
          <rect id="Rectángulo_483" data-name="Rectángulo 483" width="4.661" height="1024.824" fill="#e0e0e0"/>
        </g>
      </g>
      <g id="Grupo_10227" data-name="Grupo 10227" transform="translate(2350.702 2045.045)">
        <path id="Trazado_37418" data-name="Trazado 37418" d="M1614.838,1360.26c20.358-9.737,40.619,55.073,40.619,55.073,34.6,45.726,82.961-15.1,78.231,53.248-8.275,119.6,137.668,37.61,70.34,162.48s59.45,70.6,17.609,171.29,12.39,220.772-50.567,171.424c0,0-55.434-121.561-112.6-159.173s34.25-82.237,16.363-133.322c-25.981-74.2-88.576-71.283-43.443-151.018S1545.633,1393.358,1614.838,1360.26Z" transform="translate(-1594.208 -1359.263)" fill="url(#linear-gradient-6)"/>
        <g id="Grupo_10223" data-name="Grupo 10223" transform="translate(81.949 126.8)">
          <path id="Trazado_37419" data-name="Trazado 37419" d="M1763.525,1885.506c-27.289-19.192-59.229-152.938-61.133-232.6-.975-40.806-13.038-57.807-23.68-72.805-10.174-14.336-18.959-26.719-13.842-55.15,9.781-54.333-15.931-77.787-16.193-78.017l2.976-3.393c1.145,1,27.924,25.19,17.66,82.209-4.781,26.567,3.1,37.676,13.079,51.739,10.471,14.758,23.5,33.125,24.511,75.309,2.045,85.492,34.7,211.771,59.217,229.014Z" transform="translate(-1648.677 -1443.543)" fill="#fff"/>
        </g>
        <g id="Grupo_10224" data-name="Grupo 10224" transform="translate(173.198 310.776)">
          <path id="Trazado_37420" data-name="Trazado 37420" d="M1743.137,1833.725a58.216,58.216,0,0,1-11.54-1.251c-10.517-2.125-17.413-7.675-20.5-16.493-7.357-21.039,9.688-55.216,23.523-71.691.229-.275,23.385-28.574,20.913-67.8-.412-6.575-1.1-12.661-1.7-18.03-1.739-15.522-3-26.738,3.671-34.229,5.875-6.6,17.218-9.46,37.927-9.557,36.318-.17,50.678-15.208,62.217-27.291,4.9-5.132,9.528-9.978,15.152-13.05h0c18.1-9.877,37.27-11.331,45.586-3.45,3.948,3.743,7.282,11.075.74,24.75-5.976,12.494-13.732,20.407-19.961,26.764-8.383,8.553-13.92,14.2-11.037,25.466.676,2.643,1.458,5.314,2.24,7.993,5.6,19.15,11.946,40.855-20.83,55.583-6.956,3.128-13.292,5.614-18.882,7.809-22.878,8.978-36.688,14.4-52.278,47.305-3.016,6.37-5.682,12.406-8.258,18.246C1777.836,1812.656,1768.536,1833.724,1743.137,1833.725ZM1874.969,1578.3c-5.007,2.734-9.2,7.121-14.052,12.2-12.127,12.7-27.223,28.508-65.46,28.687-19.04.089-29.7,2.572-34.575,8.045-5.329,5.986-4.167,16.365-2.558,30.727.608,5.419,1.3,11.562,1.717,18.245,2.588,41.08-20.955,69.78-21.958,70.982-13.693,16.306-29.206,48.762-22.721,67.3,2.521,7.21,8.285,11.773,17.132,13.56,30.864,6.236,39.385-13.074,53.5-45.071,2.589-5.866,5.266-11.932,8.309-18.358,16.356-34.523,31.612-40.512,54.708-49.574,5.544-2.176,11.825-4.641,18.682-7.723,29.189-13.118,23.922-31.13,18.346-50.2-.8-2.728-1.59-5.446-2.28-8.138-3.513-13.726,3.414-20.8,12.185-29.746,6.31-6.437,13.459-13.733,19.113-25.553,2.964-6.2,5.409-14.612.226-19.526-6.82-6.465-24.154-4.687-40.317,4.139Z" transform="translate(-1709.327 -1565.824)" fill="url(#linear-gradient-6)"/>
        </g>
        <g id="Grupo_10225" data-name="Grupo 10225" transform="translate(191.449 346.816)">
          <path id="Trazado_37421" data-name="Trazado 37421" d="M1725.965,1847.694l-4.508-.236c.224-4.235,5.908-104.044,45.983-133.256,43.967-32.048,57.829-66.488,64.431-89.6,7.78-27.241,47.373-34.52,49.055-34.818l.786,4.444c-.384.069-38.5,7.093-45.5,31.612-6.785,23.76-21.021,59.146-66.112,92.012C1731.743,1745.806,1726.017,1846.678,1725.965,1847.694Z" transform="translate(-1721.457 -1589.779)" fill="url(#linear-gradient-6)"/>
        </g>
        <path id="Trazado_37422" data-name="Trazado 37422" d="M1837,1427.257c-28.485-9.764-22.566,45.134-34.6,85.755s-133.9,17.719-82.744,119.437-64.692,34.016-30.089,122.778,3.009,183.7,40.619,159.546,21.13-135.922,60.246-149.2,45.5-28.771,6.77-64.88,101.483-71.951,66.881-144.858S1869.909,1438.541,1837,1427.257Z" transform="translate(-1549.414 -1325.536)" fill="url(#linear-gradient-6)"/>
        <g id="Grupo_10226" data-name="Grupo 10226" transform="translate(180.527 229.051)">
          <path id="Trazado_37423" data-name="Trazado 37423" d="M1731.892,1867.438c-3.582-15.2-34.174-148.919-5.63-165.083,25.157-14.246,24.537-69.659,20.614-121.985-3.474-46.32,56.015-67.967,58.547-68.865l1.51,4.252c-.588.21-58.773,21.4-55.558,64.278,4.031,53.737,4.463,110.759-22.89,126.248-21.676,12.276-1.719,119.747,7.8,160.121Z" transform="translate(-1714.198 -1511.505)" fill="#fff"/>
        </g>
        <path id="Trazado_37424" data-name="Trazado 37424" d="M1826.747,1716.43l-40.669,154.291H1695.2l-40.668-154.291Z" transform="translate(-1563.776 -1179.064)" fill="url(#linear-gradient-10)"/>
        <path id="Trazado_37425" data-name="Trazado 37425" d="M1826.747,1716.431s-89.53,16.81-89.53,154.289H1695.2l-40.669-154.289Z" transform="translate(-1563.776 -1179.064)" fill="url(#linear-gradient-11)"/>
      </g>
      <g id="Grupo_10231" data-name="Grupo 10231" transform="translate(387.431 944.714)">
        <g id="Grupo_10228" data-name="Grupo 10228" transform="translate(1959.968)">
          <path id="Trazado_37426" data-name="Trazado 37426" d="M1621.058,658.514c-17.7-13.089-28.934-20.529-29.045-20.6l6.6-10c.467.307,11.583,7.669,29.569,20.967Z" transform="translate(-1592.013 -627.915)" fill="#e0e0e0"/>
        </g>
        <g id="Grupo_10229" data-name="Grupo 10229" transform="translate(82.86 65.184)">
          <path id="Trazado_37427" data-name="Trazado 37427" d="M351.821,1426.909l-7.45-9.384c18.707-14.853,37.715-29.447,56.5-43.371l7.137,9.625C389.329,1397.625,370.425,1412.134,351.821,1426.909Zm113.8-84.3-6.793-9.873c19.721-13.563,39.722-26.777,59.453-39.274l6.411,10.121C505.086,1316,485.213,1329.13,465.619,1342.609Zm119.611-75.7-6-10.371c20.683-11.96,41.692-23.519,62.454-34.359l5.547,10.62C626.626,1243.56,605.764,1255.036,585.23,1266.907Zm1652.41-44.192-.62-11.965a390.892,390.892,0,0,0,69.222-9.518l2.749,11.663A402.976,402.976,0,0,1,2237.641,1222.714Zm-71.724-1.053c-22.2-1.614-45.427-4.321-71.023-8.27l1.825-11.841c25.276,3.9,48.193,6.57,70.07,8.162ZM710.678,1201.477l-5.055-10.863c21.628-10.067,43.613-19.672,65.349-28.547l4.529,11.091C753.942,1181.961,732.134,1191.49,710.678,1201.477Zm1314.026-.856c-20.872-4.288-43.619-9.322-69.538-15.391l2.732-11.665c25.812,6.044,48.45,11.055,69.216,15.321Zm352.314-12.026-5.317-10.733a289.92,289.92,0,0,0,30.316-17.394c10.029-6.591,19.5-13.453,28.136-20.4l7.5,9.337c-8.935,7.184-18.713,14.273-29.06,21.072A300.563,300.563,0,0,1,2377.018,1188.595Zm-490.991-20.052-28.648-7.07q-19.957-4.931-40.341-9.945l2.855-11.637q20.392,5,40.36,9.951l28.633,7.07ZM841.618,1148.055l-3.968-11.305c22.478-7.887,45.321-15.244,67.9-21.877l3.375,11.5C886.543,1132.943,863.9,1140.239,841.618,1148.055Zm906.392-13.127c-24.774-5.8-47.414-10.887-69.213-15.558l2.51-11.714c21.871,4.688,44.584,9.79,69.435,15.608Zm-770.736-26.674-2.761-11.658c23.069-5.46,46.57-10.357,69.854-14.556l2.126,11.791C1023.419,1097.992,1000.132,1102.844,977.273,1108.255Zm632.022-2.886c-23.793-4.461-47.292-8.491-69.84-11.984l1.831-11.841c22.676,3.51,46.3,7.563,70.215,12.048Zm878.6-8.161-9.763-6.942c13.865-19.512,23.382-40.392,28.281-62.056l11.688,2.642C2512.851,1054.072,2502.69,1076.4,2487.9,1097.208Zm-1018.616-13.386c-23.746-2.779-47.453-5.058-70.464-6.779l.894-11.949c23.176,1.735,47.054,4.032,70.962,6.829Zm-352.9-.662-1.485-11.887c23.406-2.929,47.295-5.276,71.006-6.975l.853,11.95C1163.264,1077.932,1139.586,1080.259,1116.386,1083.161Zm211.769-9.8c-23.641-.685-47.134-.8-70.746-.333l-.241-11.978c23.811-.478,47.5-.358,71.331.334ZM2507.722,959.981c-3.563-21.069-10.727-43.226-21.3-65.856l10.858-5.069c11.022,23.6,18.51,46.8,22.252,68.927Zm-56.573-126.273a620.255,620.255,0,0,0-43.609-55.243l8.991-7.918a630.441,630.441,0,0,1,44.451,56.323ZM2358.639,727.6c-16.452-15.8-34.159-31.678-52.634-47.186l7.7-9.176c18.679,15.68,36.589,31.735,53.232,47.72Z" transform="translate(-344.371 -671.24)" fill="#e0e0e0"/>
        </g>
        <g id="Grupo_10230" data-name="Grupo 10230" transform="translate(0 856.986)">
          <path id="Trazado_37428" data-name="Trazado 37428" d="M297.17,1230.028,289.3,1221q13.7-11.941,27.337-23.475l7.739,9.147Q310.8,1218.144,297.17,1230.028Z" transform="translate(-289.297 -1197.521)" fill="#e0e0e0"/>
        </g>
      </g>
      <g id="Grupo_10241" data-name="Grupo 10241" transform="translate(184.329 1873.694)">
        <g id="Grupo_10234" data-name="Grupo 10234">
          <g id="Grupo_10233" data-name="Grupo 10233">
            <g id="Grupo_10232" data-name="Grupo 10232">
              <path id="Trazado_37429" data-name="Trazado 37429" d="M154.3,1326.892l140.079-78.344-48.148-3.175Z" transform="translate(-154.303 -1245.373)" fill="#d6d6d6"/>
            </g>
          </g>
        </g>
        <g id="Grupo_10237" data-name="Grupo 10237" transform="translate(0 11.222)">
          <g id="Grupo_10236" data-name="Grupo 10236">
            <g id="Grupo_10235" data-name="Grupo 10235">
              <path id="Trazado_37430" data-name="Trazado 37430" d="M154.3,1323.129l43.107-69.334,36.17-.962Z" transform="translate(-154.303 -1252.832)" fill="#e8e8e8"/>
            </g>
          </g>
        </g>
        <g id="Grupo_10240" data-name="Grupo 10240" transform="translate(0 21.191)">
          <g id="Grupo_10239" data-name="Grupo 10239">
            <g id="Grupo_10238" data-name="Grupo 10238">
              <path id="Trazado_37431" data-name="Trazado 37431" d="M262.169,1259.458l2.8,17.653L154.3,1319.786Z" transform="translate(-154.303 -1259.458)" fill="#c2c2c2"/>
            </g>
          </g>
        </g>
      </g>
      <g id="Grupo_10286" data-name="Grupo 10286" transform="translate(993.515 1918.103)">
        <rect id="Rectángulo_484" data-name="Rectángulo 484" width="394.112" height="457.735" rx="18.717" fill="#f5f5f5"/>
        <g id="Grupo_10243" data-name="Grupo 10243" transform="translate(43.678 123.03)">
          <g id="Grupo_10242" data-name="Grupo 10242">
            <path id="Trazado_37432" data-name="Trazado 37432" d="M916.745,1423.491a100.715,100.715,0,1,0-189.665,67.831c.76,2.132,1.59,4.231,2.479,6.28a100.718,100.718,0,0,0,187.185-74.111Zm-69.4,105.017a75.434,75.434,0,0,1-94.668-40.967q-1-2.306-1.861-4.709a75.511,75.511,0,1,1,96.529,45.676Z" transform="translate(-721.169 -1356.663)" fill="#00ece2"/>
          </g>
        </g>
        <g id="Grupo_10245" data-name="Grupo 10245" transform="translate(48.278 123.075)">
          <g id="Grupo_10244" data-name="Grupo 10244">
            <path id="Trazado_37433" data-name="Trazado 37433" d="M748.288,1434.886l-24.062-7.513a100.862,100.862,0,0,1,93.133-70.68l.752,25.2a75.621,75.621,0,0,0-69.823,52.994Z" transform="translate(-724.226 -1356.693)" fill="#003ea8"/>
          </g>
        </g>
        <g id="Grupo_10247" data-name="Grupo 10247" transform="translate(43.678 193.755)">
          <g id="Grupo_10246" data-name="Grupo 10246">
            <path id="Trazado_37434" data-name="Trazado 37434" d="M752.674,1463.825l-23.114,10.061c-.889-2.049-1.72-4.148-2.479-6.28a100.25,100.25,0,0,1-1.312-63.935l24.062,7.513a75.169,75.169,0,0,0,.982,47.931Q751.673,1461.517,752.674,1463.825Z" transform="translate(-721.169 -1403.671)" fill="#0089fe"/>
          </g>
        </g>
        <g id="Grupo_10249" data-name="Grupo 10249" transform="translate(52.069 253.909)">
          <g id="Grupo_10248" data-name="Grupo 10248">
            <path id="Trazado_37435" data-name="Trazado 37435" d="M742.358,1478.784a100.133,100.133,0,0,1-15.612-25.07l23.114-10.061a75.047,75.047,0,0,0,11.7,18.8Z" transform="translate(-726.746 -1443.653)" fill="#212121"/>
          </g>
        </g>
        <g id="Grupo_10251" data-name="Grupo 10251" transform="translate(267.091 247.369)">
          <g id="Grupo_10250" data-name="Grupo 10250">
            <path id="Trazado_37436" data-name="Trazado 37436" d="M929.152,1443.32a41.661,41.661,0,1,0-35.635,75.317q1.268.6,2.561,1.11a41.661,41.661,0,0,0,33.074-76.427Zm10.417,51.017a31.207,31.207,0,0,1-39.673,15.707q-.968-.384-1.923-.832a31.236,31.236,0,1,1,41.6-14.875Z" transform="translate(-869.663 -1439.307)" fill="#00ece2"/>
          </g>
        </g>
        <g id="Grupo_10253" data-name="Grupo 10253" transform="translate(267.091 260.467)">
          <g id="Grupo_10252" data-name="Grupo 10252">
            <path id="Trazado_37437" data-name="Trazado 37437" d="M883.667,1491.086l-9.236,4.839A41.71,41.71,0,0,1,881,1448.012l7.59,7.151a31.283,31.283,0,0,0-4.923,35.923Z" transform="translate(-869.663 -1448.012)" fill="#003ea8"/>
          </g>
        </g>
        <g id="Grupo_10255" data-name="Grupo 10255" transform="translate(271.859 303.541)">
          <g id="Grupo_10254" data-name="Grupo 10254">
            <path id="Trazado_37438" data-name="Trazado 37438" d="M898.3,1491.207l-3.819,9.7q-1.291-.508-2.561-1.11a41.473,41.473,0,0,1-19.086-18.319l9.236-4.839a31.1,31.1,0,0,0,14.307,13.733Q897.33,1490.825,898.3,1491.207Z" transform="translate(-872.832 -1476.642)" fill="#0089fe"/>
          </g>
        </g>
        <g id="Grupo_10257" data-name="Grupo 10257" transform="translate(267.092 120.499)">
          <g id="Grupo_10256" data-name="Grupo 10256">
            <path id="Trazado_37439" data-name="Trazado 37439" d="M948.993,1414.47a41.661,41.661,0,1,0-75.318-35.635c-.4.845-.772,1.7-1.11,2.561a41.662,41.662,0,0,0,76.428,33.074Zm-51.018,10.417a31.2,31.2,0,0,1-15.707-39.673q.381-.968.833-1.921a31.236,31.236,0,1,1,14.874,41.594Z" transform="translate(-869.664 -1354.981)" fill="#00ece2"/>
          </g>
        </g>
        <g id="Grupo_10259" data-name="Grupo 10259" transform="translate(289.421 120.499)">
          <g id="Grupo_10258" data-name="Grupo 10258">
            <path id="Trazado_37440" data-name="Trazado 37440" d="M889.345,1368.985l-4.84-9.236a41.715,41.715,0,0,1,47.916,6.57l-7.151,7.589a31.287,31.287,0,0,0-35.925-4.923Z" transform="translate(-884.505 -1354.981)" fill="#0089fe"/>
          </g>
        </g>
        <g id="Grupo_10261" data-name="Grupo 10261" transform="translate(269.993 125.267)">
          <g id="Grupo_10260" data-name="Grupo 10260">
            <path id="Trazado_37441" data-name="Trazado 37441" d="M881.295,1383.616l-9.7-3.819c.339-.857.709-1.715,1.11-2.561a41.481,41.481,0,0,1,18.318-19.086l4.84,9.236a31.106,31.106,0,0,0-13.732,14.308Q881.677,1382.649,881.295,1383.616Z" transform="translate(-871.592 -1358.15)" fill="#003ea8"/>
          </g>
        </g>
        <g id="Grupo_10263" data-name="Grupo 10263" transform="translate(267.227 146.914)">
          <g id="Grupo_10262" data-name="Grupo 10262">
            <path id="Trazado_37442" data-name="Trazado 37442" d="M869.753,1384.439a41.393,41.393,0,0,1,2.767-11.9l9.7,3.819a31.08,31.08,0,0,0-2.076,8.922Z" transform="translate(-869.753 -1372.538)" fill="#212121"/>
          </g>
        </g>
        <path id="Trazado_37443" data-name="Trazado 37443" d="M914.94,1523.237h-77.8v-1.546h76.25V1492.3h1.546Z" transform="translate(-618.978 -1165.201)" fill="#e2f3fe"/>
        <path id="Trazado_37444" data-name="Trazado 37444" d="M825.408,1529.513H724.226v-1.546h99.636v-48.109h1.546Z" transform="translate(-675.949 -1171.478)" fill="#e2f3fe"/>
        <rect id="Rectángulo_485" data-name="Rectángulo 485" width="69.621" height="9.278" transform="translate(48.277 340.396)" fill="#00ece2"/>
        <rect id="Rectángulo_486" data-name="Rectángulo 486" width="40.95" height="9.278" transform="translate(218.166 340.396)" fill="#00ece2"/>
        <rect id="Rectángulo_487" data-name="Rectángulo 487" width="33.321" height="7.122" transform="translate(32.504 39.291)" fill="#00ece2"/>
        <rect id="Rectángulo_488" data-name="Rectángulo 488" width="51.697" height="7.122" transform="translate(171.414 66.102)" fill="#00ece2"/>
        <rect id="Rectángulo_489" data-name="Rectángulo 489" width="31.56" height="7.122" transform="translate(104.567 66.102)" fill="#00ece2"/>
        <rect id="Rectángulo_490" data-name="Rectángulo 490" width="62.527" height="7.122" transform="translate(32.504 66.102)" fill="#00ece2"/>
        <rect id="Rectángulo_491" data-name="Rectángulo 491" width="49.373" height="7.122" transform="translate(75.968 39.291)" fill="#00ece2"/>
        <rect id="Rectángulo_492" data-name="Rectángulo 492" width="13.56" height="7.122" transform="translate(146.008 66.102)" fill="#00ece2"/>
        <rect id="Rectángulo_493" data-name="Rectángulo 493" width="36.883" height="7.12" transform="translate(186.229 39.688)" fill="#00ece2"/>
        <rect id="Rectángulo_494" data-name="Rectángulo 494" width="31.451" height="7.122" transform="translate(236.266 66.102)" fill="#00ece2"/>
        <rect id="Rectángulo_495" data-name="Rectángulo 495" width="39.097" height="7.12" transform="translate(137.482 39.688)" fill="#00ece2"/>
        <rect id="Rectángulo_496" data-name="Rectángulo 496" width="99.588" height="99.588" rx="12.492" transform="translate(147.263 401.138)" fill="#fff"/>
        <rect id="Rectángulo_497" data-name="Rectángulo 497" width="9.422" height="39.623" transform="translate(192.345 431.12)" fill="#c5ccd1"/>
        <rect id="Rectángulo_498" data-name="Rectángulo 498" width="9.422" height="39.623" transform="translate(216.868 446.221) rotate(90)" fill="#c5ccd1"/>
        <g id="Grupo_10264" data-name="Grupo 10264" transform="translate(349.58 195.894)">
          <path id="Trazado_37445" data-name="Trazado 37445" d="M1052.842,1498.115l-64.041,35.2-64.311-101.2,77.784-27.02Z" transform="translate(-924.49 -1405.093)" fill="#292c47"/>
        </g>
        <g id="Grupo_10265" data-name="Grupo 10265" transform="translate(353.84 198.884)">
          <path id="Trazado_37446" data-name="Trazado 37446" d="M1047.353,1494.072l-59.889,32.919-60.143-94.644,72.742-25.267Z" transform="translate(-927.321 -1407.08)" fill="#e2d2ca"/>
        </g>
        <g id="Grupo_10266" data-name="Grupo 10266" transform="translate(419.87 247.143)">
          <path id="Trazado_37447" data-name="Trazado 37447" d="M1047.144,1460.189s-11.147-5.331-16.04-8.117-17.478-6.611-18.494-7.521-37.308-3.147-39.509-5.044-4.342,4.45,5.064,6.51,22.494,7.1,23.212,10.774-9.662,4.547-10.712,7.574.295,2.352,1.781,3,12.343-5.362,17.117-3.656,12.071-.657,15.728.594,21.448,7.24,21.448,7.24Z" transform="translate(-971.209 -1439.156)" fill="#ffbd95"/>
        </g>
        <g id="Grupo_10267" data-name="Grupo 10267" transform="translate(361.733 247.246)">
          <path id="Trazado_37448" data-name="Trazado 37448" d="M981.605,1503.4s-9.366-8.428-13.894-11.954-13.037-13.9-14.288-14.5-17.493-33.932-20.14-35.268,2.5-5.824,8.108,2.239,15.448,18.435,19.192,17.678.522-10.876,2.965-13.044,2.329-.636,3.521.511-.247,13.72,3.22,17.553,4.082,11.63,6.686,14.591,15.173,17.394,15.173,17.394Z" transform="translate(-932.568 -1439.225)" fill="#ffbd95"/>
        </g>
        <g id="Grupo_10268" data-name="Grupo 10268" transform="translate(612.437 760.072)">
          <path id="Trazado_37449" data-name="Trazado 37449" d="M1099.2,1781.894s2.025,14.061,2.279,16.172,22.532-1.243,22.532-1.243l1.805-16.739S1101.986,1779.913,1099.2,1781.894Z" transform="translate(-1099.201 -1780.081)" fill="#424773"/>
        </g>
        <g id="Grupo_10269" data-name="Grupo 10269" transform="translate(575.814 775.318)">
          <path id="Trazado_37450" data-name="Trazado 37450" d="M1113.523,1791.167s-7.059,8.472-13.887,12.165-17.558,5.155-21.593,8.976c-2.916,2.759-10.616,14.641,17.741,14.4s42.028,1.677,45.067-2.877-4.4-33.617-4.4-33.617S1129.74,1792.63,1113.523,1791.167Z" transform="translate(-1074.859 -1790.214)" fill="#292c47"/>
        </g>
        <g id="Grupo_10270" data-name="Grupo 10270" transform="translate(452.798 760.072)">
          <path id="Trazado_37451" data-name="Trazado 37451" d="M993.095,1781.894s2.024,14.061,2.278,16.172,22.533-1.243,22.533-1.243l1.8-16.739S995.878,1779.913,993.095,1781.894Z" transform="translate(-993.095 -1780.081)" fill="#424773"/>
        </g>
        <g id="Grupo_10271" data-name="Grupo 10271" transform="translate(403.077 775.318)">
          <path id="Trazado_37452" data-name="Trazado 37452" d="M1011.809,1791.167s-7.058,8.472-13.885,12.165-31.953,6.725-35.99,10.547c-2.916,2.759-7.762,13.867,32.137,12.829,28.347-.739,42.029,1.677,45.067-2.877s-4.4-33.617-4.4-33.617S1028.414,1792.8,1011.809,1791.167Z" transform="translate(-960.047 -1790.214)" fill="#292c47"/>
        </g>
        <g id="Grupo_10272" data-name="Grupo 10272" transform="translate(542.869 400.613)">
          <path id="Trazado_37453" data-name="Trazado 37453" d="M1104.08,1541.162s20.936,33.262,19.372,63.327,7.59,62.892,10.736,94.3c3.506,35.013,17.853,117.905,18.373,136.635s-2.225,78.536-2.225,78.536l-28.721.657s-24.122-144.916-30.37-159.7-37.228-120.2-38.268-132.032S1104.08,1541.162,1104.08,1541.162Z" transform="translate(-1052.962 -1541.162)" fill="#292c47"/>
        </g>
        <g id="Grupo_10273" data-name="Grupo 10273" transform="translate(448.916 394.882)">
          <path id="Trazado_37454" data-name="Trazado 37454" d="M1025.379,1547.59S1009.6,1630,1007.521,1648.4s-3.469,89.053-4.512,100.553-6.94,150.5-12.494,167.589h36.718s28.184-101.049,28.184-148.859,21.776-103.937,35.833-135.481,46.229-32.292,54.87-90.819C1146.12,1541.381,1037.08,1529.027,1025.379,1547.59Z" transform="translate(-990.515 -1537.353)" fill="#292c47"/>
        </g>
        <g id="Grupo_10274" data-name="Grupo 10274" transform="translate(509.007 118.398)">
          <path id="Trazado_37455" data-name="Trazado 37455" d="M1080.5,1356.159s-28.1-10.5-41.055,10.894-11.71,64.211,2.455,69.477,35.439,2.513,42.691-10.872,13.8-32.734,13.484-45.666S1087.878,1359.892,1080.5,1356.159Z" transform="translate(-1030.455 -1353.585)" fill="#ffbd95"/>
        </g>
        <g id="Grupo_10275" data-name="Grupo 10275" transform="translate(522.669 175.655)">
          <path id="Trazado_37456" data-name="Trazado 37456" d="M1040.37,1418.31s1.169,7.586-.763,11.325,36.4,3.833,36.4,3.833,3.113-20.328,9.012-37.5S1040.37,1418.31,1040.37,1418.31Z" transform="translate(-1039.536 -1391.641)" fill="#ffbd95"/>
        </g>
        <g id="Grupo_10276" data-name="Grupo 10276" transform="translate(510.213 115.162)">
          <path id="Trazado_37457" data-name="Trazado 37457" d="M1089.2,1416.252s-2.645,4.365-13.446,2.671-23.978-16.064-28.487-17.642-4.552-4.226-4.552-4.226l-2.824,4.124-4.79.3s4.37-12.853-2.221-18.095,6.841-41.606,41.479-29.5c0,0,26.6,7.333,25.637,22.463S1095.154,1408.716,1089.2,1416.252Z" transform="translate(-1031.257 -1351.433)" fill="#3a3f47"/>
        </g>
        <g id="Grupo_10277" data-name="Grupo 10277" transform="translate(520.464 202.695)">
          <path id="Trazado_37458" data-name="Trazado 37458" d="M1038.07,1420.118s.12-7.14,3.358-7.825,35.726-3.809,39.7-2.248v8.318S1073.473,1423.073,1038.07,1420.118Z" transform="translate(-1038.07 -1409.613)" fill="#e2d2ca"/>
        </g>
        <g id="Grupo_10278" data-name="Grupo 10278" transform="translate(521.536 149.765)">
          <path id="Trazado_37459" data-name="Trazado 37459" d="M1039.633,1379.949c.6-2.538,7.059-9.792,9.531-2.025s-3.736,18.209-7.2,17.315S1038.1,1386.382,1039.633,1379.949Z" transform="translate(-1038.783 -1374.433)" fill="#ffbd95"/>
        </g>
        <g id="Grupo_10279" data-name="Grupo 10279" transform="translate(391.388 297.56)">
          <path id="Trazado_37460" data-name="Trazado 37460" d="M952.412,1472.673a.076.076,0,0,1,.053,0C952.243,1472.765,952.21,1472.774,952.412,1472.673Z" transform="translate(-952.278 -1472.666)" fill="#323657"/>
        </g>
        <g id="Grupo_10280" data-name="Grupo 10280" transform="translate(391.577 211.445)">
          <path id="Trazado_37461" data-name="Trazado 37461" d="M1179.992,1683.234s-18.792,5.674-48.179,8.913-102.81-1.171-103.272-4.64,15.795-129.273,14.869-135.753-1.422-29.562-1.422-29.562c-.363,6.325-6.807,32.161-14.585,46.244-2.809,5.089-12.239,21.038-16.781,17.41-22-17.564-56.059-83.743-58.218-84.3,1.816-.788,16.142-7.386,18.153-8.055,1.76-.588,17.627,16.213,27.243,26.629,4.288,4.643,7.332,8.015,7.332,8.015,2.777-6.245,12.891-45.6,16.031-59.221,7.089-30.715,6-31.992,6-31.992,21.5-6.5,54.128-19.739,54.128-19.739l43.057-1.753s39.518,8.7,55.081,15.727c1.476.667,1.484,35.254,5.535,44.325l-12.9,27.218s-7.453,53.922-9,77.9C1162.348,1591.612,1179.992,1683.234,1179.992,1683.234Z" transform="translate(-952.404 -1415.429)" fill="#fbe625"/>
        </g>
        <g id="Grupo_10281" data-name="Grupo 10281" transform="translate(577.989 227.172)">
          <path id="Trazado_37462" data-name="Trazado 37462" d="M1124.239,1515.109c-1.125,3.629-6.23,6.7-9.546,8.036a12.337,12.337,0,0,1-6.894.694l-1.685-.313h0l-29.507-5.472s-6.457-74.354,40.309-92.17C1118.153,1426.287,1134.566,1481.816,1124.239,1515.109Z" transform="translate(-1076.305 -1425.882)" fill="#fbe625"/>
        </g>
        <g id="Grupo_10282" data-name="Grupo 10282" transform="translate(607.798 286.817)">
          <path id="Trazado_37463" data-name="Trazado 37463" d="M1104.7,1503.141v0a12.337,12.337,0,0,1-6.894.694l-1.685-.313h0l2.91-38Z" transform="translate(-1096.118 -1465.526)" fill="#b38d3b"/>
        </g>
        <g id="Grupo_10283" data-name="Grupo 10283" transform="translate(436.967 316.136)">
          <path id="Trazado_37464" data-name="Trazado 37464" d="M989.911,1493.028l-3.6,15.272s-3.915-15.325-3.727-23.287C986.867,1489.656,989.911,1493.028,989.911,1493.028Z" transform="translate(-982.573 -1485.013)" fill="#b38d3b"/>
        </g>
        <g id="Grupo_10284" data-name="Grupo 10284" transform="translate(567.056 123.419)">
          <path id="Trazado_37465" data-name="Trazado 37465" d="M1069.038,1357s36.826-4.614.624,56.9Z" transform="translate(-1069.038 -1356.922)" fill="#3a3f47"/>
        </g>
        <g id="Grupo_10285" data-name="Grupo 10285" transform="translate(375.442 200.878)">
          <path id="Trazado_37466" data-name="Trazado 37466" d="M945.424,1425.011l-3.744-6.431,29.485-10.174,3.742,6.4Z" transform="translate(-941.68 -1408.405)" fill="#292c47"/>
        </g>
      </g>
      <rect id="Rectángulo_499" data-name="Rectángulo 499" width="11.785" height="535.73" transform="translate(811.926 2122.889)" fill="#706865"/>
      <rect id="Rectángulo_500" data-name="Rectángulo 500" width="11.785" height="535.73" transform="translate(547.16 2122.889)" fill="#706865"/>
      <path id="Rectángulo_501" data-name="Rectángulo 501" d="M23.514,0H364.3a23.513,23.513,0,0,1,23.513,23.513V647.605A23.513,23.513,0,0,1,364.3,671.118H23.513A23.513,23.513,0,0,1,0,647.605V23.514A23.514,23.514,0,0,1,23.514,0Z" transform="translate(487.841 1899.079)" fill="#bdafaa"/>
      <rect id="Rectángulo_502" data-name="Rectángulo 502" width="366.529" height="634.088" rx="23.232" transform="translate(498.483 1909.885)" fill="#fff"/>
      <rect id="Rectángulo_503" data-name="Rectángulo 503" width="115.563" height="26.097" transform="translate(623.966 1893.989)" fill="#706865"/>
      <g id="Grupo_10289" data-name="Grupo 10289" transform="translate(555.671 1951.239)">
        <g id="Grupo_10287" data-name="Grupo 10287">
          <path id="Trazado_37467" data-name="Trazado 37467" d="M523.536,1549.069l-7.484-19.556a106.476,106.476,0,0,1-25.323-5.8l-15.26,14.317-40.013-28.473,8.531-19.108a106.442,106.442,0,0,1-13.78-22.025l-20.932-.664-8.155-48.427,19.554-7.482a106.437,106.437,0,0,1,5.806-25.327l-14.319-15.256,28.473-40.014,19.1,8.531A106.49,106.49,0,0,1,481.767,1326l.661-20.928,48.431-8.159,7.482,19.554a106.527,106.527,0,0,1,25.326,5.8l15.257-14.319,40.011,28.476-8.529,19.1a106.372,106.372,0,0,1,13.783,22.026l20.93.664,8.158,48.426-19.557,7.485a106.537,106.537,0,0,1-5.8,25.324l14.319,15.259-28.476,40.013-19.1-8.531a106.62,106.62,0,0,1-22.029,13.781l-.66,20.928Zm-34.183-32.282,1.751.669a100.3,100.3,0,0,0,27.337,6.265l1.87.161,7.068,18.465,38.752-6.53.626-19.76,1.714-.761a100.474,100.474,0,0,0,23.778-14.88l1.437-1.208,18.036,8.052,22.789-32.019-13.52-14.4.672-1.751a100.611,100.611,0,0,0,6.266-27.339l.16-1.87,18.463-7.066-6.531-38.752-19.759-.627-.764-1.715a100.368,100.368,0,0,0-14.877-23.774l-1.211-1.437,8.054-18.038-32.022-22.786-14.4,13.515-1.751-.668a100.544,100.544,0,0,0-27.34-6.268l-1.87-.159-7.065-18.464-38.755,6.53-.626,19.759-1.715.764a100.462,100.462,0,0,0-23.776,14.878l-1.437,1.21-18.036-8.054-22.786,32.019,13.52,14.4-.672,1.753a100.369,100.369,0,0,0-6.266,27.339l-.161,1.87-18.462,7.065,6.528,38.755,19.759.627.763,1.712a100.512,100.512,0,0,0,14.881,23.778l1.208,1.435-8.054,18.039,32.021,22.784Z" transform="translate(-401.12 -1296.914)" fill="#cfcfcf"/>
        </g>
        <g id="Grupo_10288" data-name="Grupo 10288" transform="translate(68.882 79.407)">
          <path id="Trazado_37468" data-name="Trazado 37468" d="M471.04,1443.029l1.774-2.415-1.8,2.4a57.168,57.168,0,0,1-13.538-79.768l4.885,3.472a50.8,50.8,0,0,0-9.469,29.6,51.329,51.329,0,0,0,21.519,41.76Zm79.729-13.616-4.891-3.463a51.178,51.178,0,0,0-12.1-71.3l3.367-4.956.111.078a57.174,57.174,0,0,1,13.511,79.642Z" transform="translate(-446.903 -1349.693)" fill="#cfcfcf"/>
        </g>
      </g>
      <g id="Grupo_10290" data-name="Grupo 10290" transform="translate(695.27 2188.859)">
        <path id="Trazado_37469" data-name="Trazado 37469" d="M558.729,1590.159l-4.029-10.524a57.322,57.322,0,0,1-11.9-2.728l-8.215,7.706-22.864-16.273,4.592-10.283a57.212,57.212,0,0,1-6.475-10.353l-11.264-.357-4.662-27.677,10.524-4.026a57.062,57.062,0,0,1,2.729-11.9l-7.711-8.212,16.274-22.867,10.285,4.592a57.3,57.3,0,0,1,10.353-6.48l.357-11.263,27.677-4.659,4.025,10.522a57.193,57.193,0,0,1,11.905,2.728l8.213-7.708,22.866,16.273-4.59,10.284a57.627,57.627,0,0,1,6.477,10.353l11.26.358,4.667,27.674-10.527,4.029a57.436,57.436,0,0,1-2.728,11.906l7.7,8.21L607.4,1572.347l-10.282-4.59a57.237,57.237,0,0,1-10.354,6.477L586.4,1585.5ZM541.405,1570l1.753.669a51.266,51.266,0,0,0,13.938,3.194l1.869.159,3.608,9.418,18-3.033.322-10.077,1.714-.764a51.2,51.2,0,0,0,12.116-7.584l1.435-1.208,9.2,4.106L615.944,1550l-6.9-7.346.674-1.753a51.264,51.264,0,0,0,3.194-13.936l.159-1.869,9.42-3.6-3.035-18-10.079-.321-.764-1.712a51.323,51.323,0,0,0-7.584-12.122l-1.2-1.436,4.1-9.2-14.874-10.586-7.345,6.894-1.753-.668a51.211,51.211,0,0,0-13.936-3.2l-1.869-.161-3.6-9.417-18,3.033-.322,10.079-1.712.764a51.347,51.347,0,0,0-12.119,7.584l-1.437,1.208-9.2-4.106-10.583,14.872,6.9,7.346-.674,1.751a51.385,51.385,0,0,0-3.194,13.938l-.161,1.869-9.415,3.6,3.03,18,10.083.321.763,1.715a51.224,51.224,0,0,0,7.584,12.117l1.208,1.435-4.11,9.2,14.875,10.583Zm20.111-16.114a31.215,31.215,0,0,1-18.157-5.8h0a31.415,31.415,0,1,1,18.157,5.8ZM546.835,1543.2a25.4,25.4,0,1,0-5.97-35.418,25.193,25.193,0,0,0,5.97,35.418Z" transform="translate(-493.906 -1454.851)" fill="#cfcfcf"/>
      </g>
      <g id="Grupo_10308" data-name="Grupo 10308" transform="translate(94.789 2049.072)">
        <g id="Grupo_10291" data-name="Grupo 10291" transform="translate(266.294 643.96)">
          <path id="Trazado_37470" data-name="Trazado 37470" d="M299.48,1792.022s11.133,11.69,22.434,14.14,19.208,5.573,19.294,12.281-32.525,11.127-45.459,4.366c-19.3-10.094-21.265-7.052-23.406-12.1s2.571-18.536,2.431-20.141C274.6,1788.59,299.48,1792.022,299.48,1792.022Z" transform="translate(-271.785 -1789.956)" fill="#202338"/>
        </g>
        <g id="Grupo_10292" data-name="Grupo 10292" transform="translate(269.267 637.139)">
          <path id="Trazado_37471" data-name="Trazado 37471" d="M297.232,1788.715s1.47,5.478,1.252,5.594-25.467,2.945-24.706-1.45c.621-3.564,1.5-7.437,1.5-7.437Z" transform="translate(-273.761 -1785.422)" fill="#2f6b8c"/>
        </g>
        <g id="Grupo_10293" data-name="Grupo 10293" transform="translate(142.257 648.254)">
          <path id="Trazado_37472" data-name="Trazado 37472" d="M215.318,1793.629s8.191,11.389,19.144,14.014c10.8,2.591,17.8,7.518,18.331,14.039s-25.466,15.057-43.73,3.6c-12-7.524-16.476-7.1-18.894-11.878s1.265-18.181,1.023-19.733C190.893,1791.755,215.318,1793.629,215.318,1793.629Z" transform="translate(-189.342 -1792.81)" fill="#202338"/>
        </g>
        <g id="Grupo_10294" data-name="Grupo 10294" transform="translate(144.105 641.386)">
          <path id="Trazado_37473" data-name="Trazado 37473" d="M214.364,1790.3a50.093,50.093,0,0,1,.334,5.628c-.2.128-24.268,4.386-24.127.047a33.518,33.518,0,0,1,1.527-7.733Z" transform="translate(-190.571 -1788.245)" fill="#2f6b8c"/>
        </g>
        <g id="Grupo_10295" data-name="Grupo 10295" transform="translate(140.354 287.225)">
          <path id="Trazado_37474" data-name="Trazado 37474" d="M314.994,1577.149s11.693,84.936,16.469,113.65c5.585,33.572,7.478,61.313,9.035,78.688,1.957,21.856.871,133.7,2.242,140.094s-27.65,3.069-27.65,3.069-21.283-145.812-27.116-169.089c-5.433-21.671-20.373-111.022-25.33-105.1s-21.006,107.7-24.677,124.793S219.472,1914.9,219.472,1914.9s-24.665,5.357-31.395,0c0,0,1.5-119.986,3.843-152.034.891-12.212-7.726-146.208,12.927-200.245C215.76,1534.069,314.994,1577.149,314.994,1577.149Z" transform="translate(-188.077 -1552.848)" fill="#323657"/>
        </g>
        <path id="Trazado_37475" data-name="Trazado 37475" d="M313.7,1571.7l1.316,12.754s-35.623,14.434-122.349,14.442V1584.3Z" transform="translate(-45.41 -1256.114)" fill="#ffa200"/>
        <g id="Grupo_10298" data-name="Grupo 10298" transform="translate(350.486 155.087)">
          <g id="Grupo_10297" data-name="Grupo 10297">
            <g id="Grupo_10296" data-name="Grupo 10296">
              <path id="Trazado_37476" data-name="Trazado 37476" d="M345.448,1465.02s5.189,11.452,8.266,12.168,6.736,4.541,9.373,5.714,10.938,1.822,13.165,3.994c.912.888,4.395,8.528,6.438,10.135s6.566,4.359,5.164,6.077-6.108.359-6.108.359,1.772,1.575,1.01,3.477c-1.486,3.7-3.966,3.857-3.966,3.857s.788,2.779-.217,4.154c-2.215,3.033-4.62,3.119-4.62,3.119a6.353,6.353,0,0,1-2.142,3.817,5.664,5.664,0,0,1-5.513.912s-2.47,3.4-4.747,2.738-3.6-2.368-5.222-3.366-12.969-14.084-17.144-26.32a93.806,93.806,0,0,0-11.439-22.184Z" transform="translate(-327.744 -1465.02)" fill="#ffbd95"/>
            </g>
          </g>
        </g>
        <g id="Grupo_10299" data-name="Grupo 10299" transform="translate(246.153 115.066)">
          <path id="Trazado_37477" data-name="Trazado 37477" d="M378.08,1536.363s-40.312,18.337-54.635,14.812c-6.623-1.628-15.345-10.769-23.633-21.515-2.732-3.54-5.412-7.255-7.96-10.93a.023.023,0,0,1-.008-.015c-10.169-14.682-18.139-28.754-18.139-28.754s-30.056-35.224-5.937-50.928c0,0,8.752-3.28,16.791,5.336s17.483,26.639,19.592,31.237,31.631,47.173,33.161,48.133,14.43-2.436,24.773-3.3c16.866-1.407,13.521-2.118,13.521-2.118Z" transform="translate(-258.398 -1438.42)" fill="#fbe625"/>
        </g>
        <path id="Trazado_37478" data-name="Trazado 37478" d="M279.423,1433.95s30.942,6.4,34.613,9.651c3.986,3.46,11.015,37.35,11.434,46.789s-3.73,48.875-7.717,63.559,5.249,77.193-2.144,87.494c0,0-63.772,20.458-125.027,12.488,0,0,13.15-58.992,10.7-79.114-3.14-25.777-10.7-85.17-10.7-85.17s8.182-39.99,13.637-44.6,43.371-12.124,43.371-12.124Z" transform="translate(-46.46 -1326.129)" fill="#fbe625"/>
        <path id="Trazado_37479" data-name="Trazado 37479" d="M209.075,1487.246s-5.844,38.027-5.433,40.466S177.186,1520.073,209.075,1487.246Z" transform="translate(-45.013 -1298.72)" fill="#b58f3c"/>
        <g id="Grupo_10300" data-name="Grupo 10300" transform="translate(0 4.006)">
          <path id="Trazado_37480" data-name="Trazado 37480" d="M123.965,1663.144l-26.881-44.612a15.98,15.98,0,0,1,5.442-21.933l67.35-40.58a15.979,15.979,0,0,1,21.933,5.44l26.88,44.614A15.977,15.977,0,0,1,213.246,1628l-67.349,40.58A15.977,15.977,0,0,1,123.965,1663.144Z" transform="translate(-94.789 -1269.186)" fill="#c4b4af"/>
          <rect id="Rectángulo_504" data-name="Rectángulo 504" width="90.065" height="536.87" transform="matrix(0.516, 0.857, -0.857, 0.516, 501.395, 26.461)" fill="#eb4747"/>
          <rect id="Rectángulo_505" data-name="Rectángulo 505" width="536.871" height="30.023" transform="matrix(0.857, -0.516, 0.516, 0.857, 41.542, 303.527)" fill="#003ea8"/>
          <rect id="Rectángulo_506" data-name="Rectángulo 506" width="30.021" height="536.87" transform="translate(516.885 52.172) rotate(58.929)" fill="#0089fe"/>
          <rect id="Rectángulo_507" data-name="Rectángulo 507" width="30.022" height="536.87" transform="translate(532.383 77.893) rotate(58.931)" fill="#00ece2"/>
          <path id="Trazado_37481" data-name="Trazado 37481" d="M474.526,1468.206l-46.479-77.142,104.35-21.047,26.833-5.414L541.9,1385.8Z" transform="translate(73.348 -1364.603)" fill="#eddad3"/>
          <path id="Trazado_37482" data-name="Trazado 37482" d="M445.867,1407.907a15.019,15.019,0,0,1-15.5-25.717Z" transform="translate(71.024 -1355.729)" fill="#deccc6"/>
          <path id="Trazado_37483" data-name="Trazado 37483" d="M456.162,1425a15.018,15.018,0,0,1-15.492-25.715Z" transform="translate(76.219 -1347.106)" fill="#e3d1ca"/>
          <path id="Trazado_37484" data-name="Trazado 37484" d="M466.46,1442.089a15.018,15.018,0,0,1-15.494-25.715Z" transform="translate(81.415 -1338.483)" fill="#eddad3"/>
          <rect id="Rectángulo_508" data-name="Rectángulo 508" width="32.99" height="30.023" transform="translate(25.728 313.054) rotate(-31.067)" fill="#b39696"/>
          <rect id="Rectángulo_509" data-name="Rectángulo 509" width="30.022" height="32.99" transform="translate(69.478 321.745) rotate(58.931)" fill="#dbb8b8"/>
          <rect id="Rectángulo_510" data-name="Rectángulo 510" width="30.022" height="32.99" transform="matrix(0.516, 0.857, -0.857, 0.516, 84.972, 347.46)" fill="#f2cbcb"/>
          <path id="Trazado_37485" data-name="Trazado 37485" d="M443.541,1416.779l115.69-52.176-131.183,26.461Z" transform="translate(73.348 -1364.603)" fill="#deccc6"/>
          <path id="Trazado_37486" data-name="Trazado 37486" d="M453.839,1442.494l100.2-77.891-115.69,52.176Z" transform="translate(78.543 -1364.603)" fill="#e3d1ca"/>
          <path id="Trazado_37487" data-name="Trazado 37487" d="M448.644,1442.494l100.2-77.891-84.7,103.606Z" transform="translate(83.739 -1364.603)" fill="#eddad3"/>
          <path id="Trazado_37488" data-name="Trazado 37488" d="M506.911,1385.8l-9.506-15.779,26.833-5.414Z" transform="translate(108.34 -1364.603)" fill="#0089fe"/>
        </g>
        <g id="Grupo_10305" data-name="Grupo 10305" transform="translate(200.384 280.662)">
          <g id="Grupo_10304" data-name="Grupo 10304">
            <g id="Grupo_10303" data-name="Grupo 10303">
              <g id="Grupo_10302" data-name="Grupo 10302">
                <g id="Grupo_10301" data-name="Grupo 10301">
                  <path id="Trazado_37489" data-name="Trazado 37489" d="M255.043,1584.165a13.032,13.032,0,0,1-4.058-.957s-2.079-1.47-3.623-2.425a12.934,12.934,0,0,0-1.22-.686,23.88,23.88,0,0,1-6.742-3.587c-2.6-2.173-11.424-14.442-11.424-14.442l5.276-6.651,4.053-6.932s20.538,3.179,23.2,4.925a7.935,7.935,0,0,1,.73.537c2.111,1.7,2.968,3.846,3.975,4.861.366.376,3.764,4.353,3.5,5.9a5.108,5.108,0,0,1-2.859,4.063s-.907,4.157-3.155,5.931c0,0-.715,3.861-4.139,5.273C258.555,1579.97,257.389,1583.805,255.043,1584.165Z" transform="translate(-227.977 -1548.485)" fill="#ffbd95"/>
                </g>
              </g>
            </g>
          </g>
        </g>
        <path id="Trazado_37490" data-name="Trazado 37490" d="M230.825,1440.927c4.058,1.572,8.356,11.388,5.159,30.64-3.429,20.658-10.247,29.481-12.989,34.308s-17.82,34.589-15.108,38.505,28.306,29.17,29.787,31.226,30.06,27.924,30.06,27.924l-14.55,20.332s-61.711-48.2-66.526-53.015-19.205-14.923-13.882-31.735c5.409-17.088,15.133-57.088,16.86-60.216S204,1430.542,230.825,1440.927Z" transform="translate(-56.03 -1322.869)" fill="#fbe625"/>
        <g id="Grupo_10307" data-name="Grupo 10307" transform="translate(371.839 181.196)">
          <g id="Grupo_10306" data-name="Grupo 10306">
            <path id="Trazado_37491" data-name="Trazado 37491" d="M373.953,1493.2s-9.894-11.022-14.827-10.821-1.578,4.375-1.578,4.375-3.25-4.183-6.766-1.974.667,6.888.667,6.888a4.078,4.078,0,0,0-5.9.956c-2.6,3.475,1.721,6.575,1.721,6.575s-6.534-.974-5.142,4.365c2.352,9.012,12.078,13.314,12.078,13.314s2.78,1.086,5.054-2.437c0,0,6.146,2.309,7.839-4.771,0,0,7.374-1.7,5.112-7.413C372.214,1502.253,379.627,1499.4,373.953,1493.2Z" transform="translate(-341.937 -1482.374)" fill="#ffbd95"/>
          </g>
        </g>
        <path id="Trazado_37492" data-name="Trazado 37492" d="M282.266,1439.315s1.858-8.466-24.64-10.427-44.42,3.992-44.919,11.6,67.123,26.581,67.123,26.581Z" transform="translate(-35.298 -1328.353)" fill="#ffa200"/>
        <path id="Trazado_37493" data-name="Trazado 37493" d="M251.419,1370.6s37.219-13.774,34.893,35.689-11.049,54.488-35.534,47.581-26.535-38.125-29.723-53.143S239.247,1372.762,251.419,1370.6Z" transform="translate(-31.247 -1358.457)" fill="#ffbd95"/>
        <path id="Trazado_37494" data-name="Trazado 37494" d="M268.238,1456.249s-8.92,3.931-37.961-8.863c0,0,.82-19.912-4.879-38.508s38.975,24.8,38.975,24.8c-.469.33-.558,2.189-.292,4.78a52.7,52.7,0,0,0,1.434,7.687C267.146,1452.36,266.767,1451.254,268.238,1456.249Z" transform="translate(-29.147 -1340.596)" fill="#ffbd95"/>
        <path id="Trazado_37495" data-name="Trazado 37495" d="M227.878,1428.747s-.107-13.214,5.389-14.43,8.323,6.421,8.323,6.421l4.423-.238s-3.954-13.389,1.286-16.458,36.573-.373,40.506-4.881-1.769-31.281-10.321-33.909-31.9-7.958-46.734,5.249c0,0-12.739,5.5-13.256,16.008S223.406,1421.583,227.878,1428.747Z" transform="translate(-32.896 -1361.94)" fill="#163342"/>
        <path id="Trazado_37496" data-name="Trazado 37496" d="M263.036,1439.306c-28.848-4.851-33.161-21.256-33.226-21.513,11.216,14.461,31.792,13.827,31.792,13.827A52.7,52.7,0,0,0,263.036,1439.306Z" transform="translate(-26.668 -1333.761)" fill="#b07c63"/>
        <path id="Trazado_37497" data-name="Trazado 37497" d="M235.471,1393.958c-1.644-4.357-10.929-3.808-9.978,3.1s8.622,17.55,11.7,15.555S237.737,1399.97,235.471,1393.958Z" transform="translate(-28.881 -1347.192)" fill="#eea886"/>
      </g>
      <g id="Grupo_10330" data-name="Grupo 10330" transform="translate(1164.96 83.677)">
        <g id="Grupo_10310" data-name="Grupo 10310" transform="translate(361.573 609.977)">
          <g id="Grupo_10309" data-name="Grupo 10309">
            <path id="Trazado_37498" data-name="Trazado 37498" d="M1071.825,473.842s15.342,26,21.819,30.25c8.791,5.765,3.283,11.6-.892,11.6s-25.5,1.532-30.2-3.8-7.031-21.315-11.4-25.494-8.884-20.793,2.129-24.829C1063.015,458,1071.825,473.842,1071.825,473.842Z" transform="translate(-1046.415 -461.046)" fill="#e8e8e8"/>
          </g>
        </g>
        <g id="Grupo_10312" data-name="Grupo 10312" transform="translate(367.699 610.501)">
          <g id="Grupo_10311" data-name="Grupo 10311">
            <path id="Trazado_37499" data-name="Trazado 37499" d="M1063.13,462.225s17.568,30.456,20.6,34.956-5.7,4.492-11.112,2.355-19.014-23.979-20.969-27.957c-2.334-4.747-.417-10.184-.417-10.184Z" transform="translate(-1050.487 -461.394)" fill="#ffbd95"/>
          </g>
        </g>
        <g id="Grupo_10314" data-name="Grupo 10314" transform="translate(362.542 627.72)">
          <g id="Grupo_10313" data-name="Grupo 10313">
            <path id="Trazado_37500" data-name="Trazado 37500" d="M1047.059,472.839l4.055,31.22,2.148.1-.667-22.461Z" transform="translate(-1047.059 -472.839)" fill="#e8e8e8"/>
          </g>
        </g>
        <g id="Grupo_10316" data-name="Grupo 10316" transform="translate(209.386 610.073)">
          <g id="Grupo_10315" data-name="Grupo 10315">
            <path id="Trazado_37501" data-name="Trazado 37501" d="M970.731,473.81s15.342,26,21.819,30.25c8.792,5.765,3.283,11.6-.892,11.6s-25.5,1.532-30.2-3.8-7.029-21.315-11.4-25.494-9.032-21.221,2.129-24.829C961.974,458.372,970.731,473.81,970.731,473.81Z" transform="translate(-945.262 -461.11)" fill="#e8e8e8"/>
          </g>
        </g>
        <g id="Grupo_10318" data-name="Grupo 10318" transform="translate(215.571 610.501)">
          <g id="Grupo_10317" data-name="Grupo 10317">
            <path id="Trazado_37502" data-name="Trazado 37502" d="M962.936,462.289s16.648,30.391,19.676,34.891-5.7,4.492-11.112,2.355-19.017-23.979-20.97-27.957c-2.332-4.747-.417-10.184-.417-10.184Z" transform="translate(-949.373 -461.394)" fill="#ffbd95"/>
          </g>
        </g>
        <g id="Grupo_10320" data-name="Grupo 10320" transform="translate(210.413 627.72)">
          <g id="Grupo_10319" data-name="Grupo 10319">
            <path id="Trazado_37503" data-name="Trazado 37503" d="M945.944,472.839,950,504.059l2.15.1-.669-22.461Z" transform="translate(-945.944 -472.839)" fill="#e8e8e8"/>
          </g>
        </g>
        <g id="Grupo_10322" data-name="Grupo 10322" transform="translate(166.791 364.44)">
          <g id="Grupo_10321" data-name="Grupo 10321">
            <path id="Trazado_37504" data-name="Trazado 37504" d="M916.951,319.5l138.824,63.255s15.494,5.039,17.233,22.243c5.419,53.706,45.59,138.905,45.59,138.905,12.891,6.3,11.9.831,11.9.831C1122.377,518.665,1112.49,411.2,1108.96,368c-.745-9.152-1.21-15.417-1.309-17.421-.069-1.366-1.559-3.151-4.133-5.233-19.044-15.448-97.432-47.427-97.432-47.427C947.236,296.422,916.951,319.5,916.951,319.5Z" transform="translate(-916.951 -297.847)" fill="#ffbd95"/>
          </g>
        </g>
        <g id="Grupo_10324" data-name="Grupo 10324" transform="translate(140.068 354.901)">
          <g id="Grupo_10323" data-name="Grupo 10323">
            <path id="Trazado_37505" data-name="Trazado 37505" d="M899.747,349.867c4.3,37.524,57.861,33.226,57.861,33.226h64.919s-17.052,37.946-23.636,69.95c-6.987,33.966-23.458,94.064-23.458,94.064s1.079,2.04,12.823.9c0,0,50.96-101.566,70.466-127.1,4.195-5.5,16.223-35.322,18.295-53.111.7-5.988.266-10.611-1.969-12.486a161.672,161.672,0,0,0-14.331-9.8c-20.334-12.822-55.648-32.562-75.324-36.986-26.352-5.92-68.029-17.021-68.029-17.021S895.45,312.344,899.747,349.867Z" transform="translate(-899.189 -291.506)" fill="#ffbd95"/>
          </g>
        </g>
        <path id="Trazado_37506" data-name="Trazado 37506" d="M931.031,161.854s-9.716-18.445-4.978-38.092,22.962-39.218,49.652-30.23,48.265,29.722,32.266,53.7,14.479,34.8,6.712,46.208-4.821,23.32-1.532,25.973,13.894,12.117,12.727,23.316S974.1,210.084,974.1,210.084,946.529,154.694,931.031,161.854Z" transform="translate(-746.224 -37.622)" fill="#464240"/>
        <path id="Trazado_37507" data-name="Trazado 37507" d="M1019.115,297.927s-4.022,19.53-107.706-5.127C911.409,292.8,946.168,281.254,1019.115,297.927Z" transform="translate(-752.956 62.083)" fill="#eb4747"/>
        <g id="Grupo_10325" data-name="Grupo 10325" transform="translate(136.202 173.545)">
          <path id="Trazado_37508" data-name="Trazado 37508" d="M917.693,357.783q-2.406,4.6-4.818,9.206,56.851,1.654,113.7,3.311c-6-20.076-4.05-47.26-3-67.9,1.282-25.2,15.2-42.727,13.718-68.217,7.5,1.213,8.8,1.443,16.3,2.591-11.483-32.72-15.415-48.933-51.092-61.526-11.616-4.1-19.249-4.912-31.819-3.877-41.316,3.408-53.778,3.9-74.069,41.335,31.766,5.058,26.537,16.466,36.17,48.067,4.7,15.409,9.6,32.606,7.083,48.859C937.395,325.636,917.693,343.186,917.693,357.783Z" transform="translate(-896.619 -170.966)" fill="#f2f2f2"/>
        </g>
        <g id="Grupo_10326" data-name="Grupo 10326" transform="translate(209.579 140.882)">
          <path id="Trazado_37509" data-name="Trazado 37509" d="M959.025,194.136c-16.909-3.2-13.315-12.6-13.315-12.6s.787-5.309,1.091-12.018c.078-1.718.126-3.53.116-5.365a72.087,72.087,0,0,0-.465-8.319c-1.384-11.347,30.694-4.577,30.694-4.577s-1.849,22.965,2.574,29.848S975.936,197.329,959.025,194.136Z" transform="translate(-945.39 -149.256)" fill="#ffbd95"/>
        </g>
        <g id="Grupo_10327" data-name="Grupo 10327" transform="translate(190.954 170.023)">
          <path id="Trazado_37510" data-name="Trazado 37510" d="M933.011,171.7s34.111,39.385,46.719,48.515c0,0,14.484-13.092,5.558-47.662C985.287,172.556,968.819,164.31,933.011,171.7Z" transform="translate(-933.011 -168.625)" fill="#ffbd95"/>
        </g>
        <path id="Trazado_37511" data-name="Trazado 37511" d="M936.285,109.8s-17.714,34.129-.146,66.458,52.083-14.081,54.318-19.524,14.069-36.242-9.474-45.6S941.3,100.536,936.285,109.8Z" transform="translate(-744.399 -31.484)" fill="#ffbd95"/>
        <path id="Trazado_37512" data-name="Trazado 37512" d="M942.4,124.282S930.2,140.3,928.76,152.129a63.443,63.443,0,0,1,8.869-43.87c13.726-21.5,48.625-1.02,53.3,7.568s18.37,16.154-4.64,53.063C986.288,168.889,944.9,140.135,942.4,124.282Z" transform="translate(-744.623 -33.856)" fill="#464240"/>
        <path id="Trazado_37513" data-name="Trazado 37513" d="M961.418,154.1s-3.075,6.719-15.09,12.969c.078-1.718.126-3.53.116-5.365A28.7,28.7,0,0,0,961.418,154.1Z" transform="translate(-735.338 -5.928)" fill="#a77860"/>
        <path id="Trazado_37514" data-name="Trazado 37514" d="M849.157,275.131s-8.422,3.745-12.414,2.045-10.169-2.028-12.116-2.033c-2.6-.006-10.757-2.913-10.616.272s13.237,5.407,15.916,6.4-8.018,6.883-9.011,9.5S832,311.1,838.806,306.207s10.5-14.656,11.889-15.278a49.553,49.553,0,0,0,5.111-3.361Z" transform="translate(-802.096 54.524)" fill="#ffbd95"/>
        <path id="Trazado_37515" data-name="Trazado 37515" d="M826.2,284.472s-19.745,16.374-20.057,18.585.73,3.242,2.646,1.79,19.583-15.26,19.583-15.26-19.786,23.368-20.453,25.1c-.391,1.014,1.508,3.126,2.612,2.445s22.15-22.684,22.15-22.684-18.432,21.855-18.534,23.49a2.143,2.143,0,0,0,3.618,1.45c1.49-1.524,19.834-20.808,19.834-20.808s-12.333,16.78-11.571,18.257c.465.9,2.021,2.8,5.058-1.635s11.379-14.1,11.379-14.1Z" transform="translate(-806.091 59.846)" fill="#ffbd95"/>
        <g id="Grupo_10328" data-name="Grupo 10328" transform="translate(140.07 354.901)">
          <path id="Trazado_37516" data-name="Trazado 37516" d="M1015.753,383.1H957.608s-53.563,4.3-57.859-33.227,17.614-58.362,17.614-58.362,28.3,7.536,53,13.5a191.4,191.4,0,0,1,44.684-3.9s104.724,34.6,101.573,52.824C1116.621,353.938,1072.815,330.514,1015.753,383.1Z" transform="translate(-899.19 -291.506)" fill="#202338"/>
        </g>
        <path id="Trazado_37517" data-name="Trazado 37517" d="M951.51,309.741l110.854-1.631-55.97,28.419Z" transform="translate(-732.724 71.772)" fill="#5e5853"/>
        <path id="Trazado_37518" data-name="Trazado 37518" d="M993.493,303.3s-24.939,9.658-55.508.925l-1.432-11.413,62.942,3.5Z" transform="translate(-740.27 64.052)" fill="#f2f2f2"/>
        <path id="Trazado_37519" data-name="Trazado 37519" d="M1006.394,335.982l-54.884-21.26v-5.527l59.223,21.363Z" transform="translate(-732.724 72.319)" fill="#91887f"/>
        <g id="Grupo_10329" data-name="Grupo 10329" transform="translate(37.38 170.646)">
          <path id="Trazado_37520" data-name="Trazado 37520" d="M977.365,369.914a5.483,5.483,0,0,0,7.624,5.439l6.433-2.749a4.587,4.587,0,0,0,2.728-4.944c-2.68-16.768-8.428-82.037-.026-93.241a40.54,40.54,0,0,0,6.137-10.936c5.55,14.305,12.453,32.729,15.194,42.643l52.377,69.675,17.556,4.455c-21.914-52.8-39.512-80.773-39.512-80.773-3.432-9.2-13.256-37.07-21.96-61.883-5.5-15.665-10.547-30.113-13.259-37.879a17.762,17.762,0,0,0-7.661-9.393c-8.112-4.849-21.63-12.491-33.891-18.441-.048-.026-.1-.045-.146-.071q-.587-.289-1.177-.566l-.02-.008-.007,0c23.31,35.266,14.218,134.855,9.618,198.539Z" transform="translate(-761.907 -167.93)" fill="#4e568a"/>
          <path id="Trazado_37521" data-name="Trazado 37521" d="M959.875,175.355c-7.47,1.154-25.977,19.127-35.811,37.267-11.221,20.705-22.642,44.275-31.2,52.028-15.742,14.263-59.8,64.666-61.891,63.447-.805-.469,12.081,15.051,13.721,15.775.814.36,72.413-61.679,79.291-71.131,6.521-8.962,23.955-46.57,29.173-45.745l.015.029.006.015a279.212,279.212,0,0,1,12.749,34.708c.1.333.2.665.3,1,4.143,14.021,3.763,29.24,1.518,46.344C966.05,322,956.413,343.1,950.6,353.381c-.7,1.234-.521,3.582.23,5.37v0a3.864,3.864,0,0,0,1.909,2.227l21.023,7.787L978.7,370.6a10.767,10.767,0,0,0,14.415-8.7c4.675-35.954,10.589-72.687,15.3-86.522,20.68-60.718-8.082-106.34-8.082-106.34S966.424,172.909,959.875,175.355Z" transform="translate(-830.936 -169.039)" fill="#4e568a"/>
        </g>
        <path id="Trazado_37522" data-name="Trazado 37522" d="M987.989,357.189l32.974-90.028,106.3,1.735-31.426,82.962Z" transform="translate(-714.319 51.112)" fill="#6e6760"/>
        <path id="Trazado_37523" data-name="Trazado 37523" d="M1033.155,296.444c-3.245,6.484-2.264,13.547,2.188,15.773s10.691-1.223,13.935-7.708,2.263-13.547-2.189-15.773S1036.4,289.959,1033.155,296.444Z" transform="translate(-692.498 61.655)" fill="#807066"/>
        <path id="Trazado_37524" data-name="Trazado 37524" d="M960.26,130.5s6.809,10.593.516,19.738,1.587,18.125,2.953,27.792-26.259,35.385,4.462,48.325,40.5-8.449,32.662-20.221-13.4-21.321-14.064-38.1S980.607,125.086,960.26,130.5Z" transform="translate(-731.658 -18.202)" fill="#464240"/>
        <path id="Trazado_37525" data-name="Trazado 37525" d="M806.482,55.617H948.435V180.178l-21.67-21.672H806.482Z" transform="translate(-805.894 -55.617)" fill="#fbe625"/>
      </g>
    </g>
  </g>
</svg>
